<svg
 xmlns="http://www.w3.org/2000/svg"
 viewBox="0 0 144 144"
 fill="currentColor">
  <path d="M11.08 72.55c3.02 0 4.83-1.92 5.04-5.32 0-.6 0-1.43-.11-2.3v-.22h-2.52l.22.49c.11.38.22 1.21.22 1.92-.11 1.7-1.43 2.8-3.24 2.63-1.92-.11-3.02-1.32-3.02-3.02 0-.6.11-1.21.6-1.81l.38-.49-2.41-.38-.11.22c-.38.71-.49 1.59-.6 2.3-.22 3.51 1.7 5.81 5.21 5.92.05.05.16.05.33.05ZM11.52 60.76c.71.22 1.32.22 1.92.22 2.3 0 4-1.32 4.72-3.62.38-1.43.22-2.63-.38-3.84-.71-1.21-1.92-2.03-3.51-2.52-.6-.22-1.32-.22-1.81-.22-2.3 0-4 1.32-4.72 3.62-.88 2.96.55 5.37 3.78 6.36Zm-1.65-5.7c.38-1.32 1.43-1.59 2.3-1.59.38 0 .82.11 1.32.22 1.1.38 1.92.82 2.3 1.59.22.49.38.99.11 1.59-.38 1.32-1.43 1.59-2.3 1.59-.49 0-.82-.11-1.32-.22-1.48-.49-2.91-1.59-2.41-3.18ZM21.93 47.21l-3.51-1.92.11-.22c.38-.6.6-.6 1.1-.49l3.51.49 1.32-2.52-4.61-.49h-.82c0-.99-.49-1.92-1.43-2.41-.49-.22-.99-.38-1.43-.38-1.7 0-2.52 1.7-3.4 3.24l-1.26 2.3 9.16 4.94 1.26-2.52Zm-5.42-3.23-.11.22-1.7-.82.11-.22c.38-.71.82-1.43 1.59-1.1.22.11.38.22.49.49.05.44-.16 1.04-.38 1.43ZM27.58 38.06l-4.71-3.84 6.74 1.53 1.81-2.3-7.95-6.64-1.7 1.98 4.83 3.95-6.75-1.54-1.92 2.25 8.06 6.64 1.59-2.03zM39.26 26.81l-1.42-1.64-2.91 2.25-1.32-1.54 2.64-2.19-1.43-1.7-2.63 2.19-.99-1.31 2.91-2.31-1.48-1.81-4.94 4.01 6.53 8.06 5.04-4.01zM47.87 21.66l-1.09-1.92-3.29 1.81-3.95-7.13-2.31 1.32 5.05 9.05 5.59-3.13zM56.65 18.26l-.83-2.03-3.4 1.21-2.74-7.62-2.58.87 3.51 9.76 6.04-2.19zM67.17 16.56h.6c1.43-.11 2.52-.6 3.13-1.32s.82-1.81.71-3.02l-.49-6.53-2.63.11.49 5.92c.11 2.03-.71 2.41-1.43 2.52h-.22c-.6 0-1.43-.22-1.7-2.3l-.49-5.92-2.63.22.49 6.53c.38 2.47 1.75 3.78 4.17 3.78ZM79.07 10.42l2.2 6.41 3.01.5L85.6 6.91l-2.52-.33-.83 6.14-2.19-6.52-2.91-.33-1.42 10.25 2.52.33.82-6.03zM93.44 9.21l-2.52-.82-3.13 9.87 2.53.88 3.12-9.93zM106.49 15.03l-2.3-1.21-5.05 5.15 1.05-7.07-2.53-1.37-1.53 11.02 2.63 1.21 7.73-7.73zM109.12 30l1.32-1.81-2.85-2.31 1.21-1.59 2.63 2.09 1.42-1.81-2.63-2.09.99-1.31 2.85 2.3 1.48-1.81-5.1-3.89-6.36 8.22 5.04 4.01zM113.46 34.33l3.02-2.63.11.22c.38.49.38.6.11 1.21l-1.7 3.13 1.92 2.19 2.03-4.11c.11-.11.22-.49.22-.82.82.38 1.92.22 2.8-.49 2.3-1.92.49-4-.82-5.54l-1.7-1.92-7.84 6.85 1.86 1.92Zm6.19-5.43.11.22c.38.49.71.99.71 1.32 0 .22-.11.38-.38.49-.11.22-.38.22-.49.22-.49 0-.99-.49-1.21-.82l-.11-.22 1.37-1.21ZM123.11 42.66c-.49.38-1.21-.22-1.43-.71-.38-.6-.49-1.21-.49-2.03v-.6l-2.41 1.1.11.49c.22.82.38 1.32.82 2.19.82 1.43 1.92 2.19 3.13 2.19.6 0 1.1-.11 1.7-.49 1.81-1.1 1.59-2.8 1.32-4.11-.11-.82-.22-1.43.11-1.7.22-.11.38-.11.49-.11.49 0 .82.49.99.6.38.49.49 1.1.6 1.7l.11.49 2.19-.99v-.22c-.11-.71-.49-1.43-.99-2.3-1.1-1.92-3.02-2.52-4.72-1.43-1.81 1.1-1.59 2.8-1.32 4 .16 1.04.27 1.65-.22 1.92ZM123.381 49.655l9.593-3.913.993 2.435-9.592 3.913zM133.96 55.55l-7.84 1.92.61 2.52 8-1.92.61 2.69 2.13-.49-1.91-7.96-2.2.61.6 2.63zM127.82 67.61l.11 2.69 4.12-.27 6.52 3.4-.16-2.91-3.84-1.81 3.62-2.3-.22-3.13-6.03 4.22-4.12.11zM13.11 91.96l2.19-.6-.88-3.13 1.59-.49.93 3.4 2.2-.72-1.7-5.81-9.98 2.91.71 2.52 4.11-1.21.83 3.13zM22.37 100.68c.38-1.21.22-2.52-.38-3.84-.99-1.92-2.41-2.91-4.33-2.91-.82 0-1.81.22-2.8.71-1.59.71-2.52 1.81-3.02 3.13-.38 1.21-.22 2.52.38 3.84.99 1.81 2.41 2.91 4.33 2.91.82 0 1.81-.22 2.8-.71 1.59-.82 2.69-1.81 3.02-3.13Zm-4.05.6c-.6.38-1.32.49-1.92.49-.99 0-1.59-.38-1.92-1.21-.22-.6-.38-1.1-.11-1.59.22-.71.99-1.43 1.92-1.92.6-.22 1.21-.49 1.81-.49.99 0 1.59.38 1.92 1.21.22.6.38 1.1.11 1.59-.27.71-.88 1.43-1.81 1.92ZM29.61 108.74l-4.72 3.73c-1.21.99-2.19 1.1-2.91.22-.22-.38-.38-.71-.38-1.1.11-.49.49-1.1 1.21-1.7l4.72-3.73-1.7-2.03-5.21 4.11c-1.1.82-1.7 1.81-1.7 2.91 0 .99.38 1.92 1.21 3.02.99 1.32 2.03 1.92 3.24 1.92.82 0 1.7-.38 2.52-1.1l5.21-4.22-1.48-2.03ZM38.44 117.19l-3.84 4.82 1.43-6.74-2.31-1.92-6.63 8.06 2.08 1.7 3.84-4.83-1.42 6.75 2.24 1.92 6.64-8.07-2.03-1.69zM46.17 122.12l-2.63-1.32-4.72 9.27 2.63 1.32c1.32.6 2.41.99 3.51.99 1.81 0 3.24-.99 4.22-2.91 1.54-3.13.49-5.54-3.02-7.35Zm.5 6.2c-.49 1.1-1.43 1.7-2.52 1.7-.49 0-.82-.11-1.32-.38l-.6-.38 2.63-5.32.6.38c.71.38 1.21.99 1.43 1.59.22.82.11 1.54-.22 2.41ZM51.93 135.88l6.2 1.7.6-2.19-3.62-.93.44-1.92 3.4.82.6-2.19-3.4-.82.39-1.7 3.73.98.49-2.19-6.14-1.54-2.69 9.98zM67.28 128.32l-3.02-.11-.6 10.36 3.02.11h.71c3.51 0 5.32-1.7 5.54-4.94.11-1.59-.22-2.91-1.1-3.84-.93-.88-2.41-1.48-4.55-1.59Zm-.11 8.17h-.71l.38-5.92h.71c1.43.11 2.8 1.21 2.63 3.13-.16 1.97-1.59 2.8-3.02 2.8ZM82.09 127.44l-1.81 10.97 2.8-.6.38-2.3 3.4-.71 1.32 2.03 2.91-.6-6.14-9.27-2.85.49Zm1.7 5.81.38-2.8 1.43 2.3-1.81.49ZM92.02 132.87l.93 2.52 2.41-.93-.82-2.41-2.52.82zM97.06 122.39l-2.63 1.43 4.94 9.16 2.63-1.43c3.51-1.92 4.33-4.33 2.8-7.35-1.59-3.13-4.22-3.73-7.73-1.81Zm4.22 6.97-.6.38-2.8-5.21.6-.38c.38-.22.82-.38 1.32-.38 1.1 0 1.92.6 2.52 1.59 1.04 1.75.16 3.29-1.04 4ZM106.82 125.63l1.48 2.19 2.14-1.59-1.43-2.14-2.19 1.54zM110.93 112.25l-.49 4.11 2.3.33.28-1.64 4.93 4.93 1.92-1.81-7.35-7.51-1.59 1.59zM125.08 106.82c-.82-.6-1.81-.71-2.91-.38 0-.99-.49-1.92-1.21-2.41-1.32-.99-3.02-.38-4.33 1.32-1.21 1.7-1.1 3.4.38 4.44.71.49 1.7.6 2.52.38-.11 1.1.22 1.92 1.1 2.52.6.49 1.21.6 1.81.6 1.1 0 2.03-.6 3.02-1.81.71-.99 1.1-1.92.99-2.91-.16-.55-.66-1.15-1.37-1.75Zm-4.99.71c-.38.22-.71.49-1.1.49-.11 0-.38 0-.49-.11-.49-.38-.22-.99 0-1.32.11-.22.38-.38.6-.38.11 0 .38.11.6.22.38.27.55.77.38 1.1Zm3.62 2.91c-.38.49-.99.6-1.43.22-.38-.38-.6-.71-.49-1.43.71-.49 1.32-.6 1.81-.22.22.11.38.38.38.6s-.11.6-.27.82ZM129.74 96.68c-1.81-.82-3.51-.38-4.33 1.32-.22.49-.38.99-.22 1.43-.6-.49-1.21-1.32-.71-2.41.22-.49.6-.82.99-1.21l.38-.22-1.92-1.32-.22.22c-.49.49-.99 1.1-1.32 1.81-.49 1.1-.6 2.03-.22 3.02.6 1.7 2.3 2.91 3.62 3.51 1.21.6 2.19.82 3.02.82 1.32 0 2.3-.6 3.02-1.92.82-2.14.11-3.95-2.08-5.04Zm0 3.89c-.11.38-.49.49-.82.49-.22 0-.6-.11-.82-.22-.49-.22-.82-.6-.99-.82-.11-.22 0-.38 0-.6.11-.38.38-.49.82-.49.22 0 .6.11.99.22.49.22.71.49.82.82.16.22 0 .44 0 .6ZM133.53 86.09c-2.03-.6-3.73.38-4.33 2.3 0 .22-.11.38-.11.49l-1.21-.38 1.1-3.62-2.03-.6-1.81 6.03 5.81 1.81v-.49c0-.6.11-1.1.22-1.7.11-.49.71-1.7 1.81-1.43 1.21.38.99 1.7.82 2.03-.22.71-.6 1.21-.99 1.7l-.38.38 2.41.82.11-.22c.38-.71.71-1.59.99-2.19.38-1.21.38-2.3-.11-3.24-.49-.77-1.37-1.37-2.3-1.7ZM57.19 60.87l-.49-.27c-2.96-1.59-7.9-4.5-7.9-6.69V42.45h17.11v11.57c0 1.92-4.5 4.66-8.23 6.58l-.49.27Zm-6.3-11.02v4.06c.22.71 3.07 2.8 6.31 4.55 3.35-1.75 6.25-3.78 6.64-4.55v-4.06H50.9Zm0-2.09h12.94v-3.24H50.89v3.24Z" />
  <path d="M72 144c-39.7 0-72-32.3-72-72S32.3 0 72 0s72 32.3 72 72-32.3 72-72 72ZM72 2.08C33.45 2.08 2.08 33.45 2.08 72S33.45 141.92 72 141.92s69.92-31.37 69.92-69.92S110.55 2.08 72 2.08Z" />
  <path d="M72 124.59c-29.01 0-52.59-23.58-52.59-52.59S42.99 19.41 72 19.41 124.59 42.99 124.59 72c0 29.01-23.58 52.59-52.59 52.59ZM72 21.5c-27.86 0-50.5 22.65-50.5 50.5s22.65 50.5 50.5 50.5 50.5-22.65 50.5-50.5S99.85 21.5 72 21.5Z" />
  <path d="m86.7 60.87-.49-.27c-3.02-1.59-8.06-4.5-8.06-6.69V42.45h17.11v11.57c0 1.54-2.74 3.73-8.06 6.58l-.49.27Zm-6.47-7.02c.27.77 3.18 2.85 6.47 4.61 3.24-1.75 6.09-3.78 6.47-4.55v-1.43l-6.47-4.22-6.47 4.22v1.37Zm12.94.05Zm-6.47-8.17 6.47 4.22v-5.43H80.28v5.43l6.42-4.22ZM60.98 77.98l7.233-.33.11 2.408-7.233.33zM60.988 84.615l7.233-.329.109 2.408-7.233.328zM60.99 91.248l7.232-.329.11 2.408-7.233.328zM52.81 79.07h4v3.35h-4zM52.81 88.62h3.84v3.35h-3.84z" />
  <path d="M71.01 99.09c-.05-.05-1.43-1.04-2.3-.93-4.33.71-11.35.55-11.68.55h-1.04V72.72l1.15.11c.05 0 5.54.6 10.47-.27 1.7-.44 3.45 0 4.33.33.88-.27 2.8-.77 4.55-.33 4.94.88 10.42.27 10.47.27l1.15-.11v25.99h-1.04c-.33 0-7.51.16-11.84-.55-.93-.16-2.08.71-2.41.93l-.88.6-.93-.6Zm-1.86-3.07c1.21-.05 2.08.55 2.74.99.77-.49 2.3-1.21 3.78-.93 3.18.55 8.23.55 10.42.55V75.02c-1.97.16-6.03.33-9.93-.38h-.11c-1.59-.44-3.62.27-3.62.27l-.49.11h-.11s-1.97-.82-3.56-.38h-.11c-3.89.71-7.95.55-9.93.38v21.61c2.14 0 7.18 0 10.42-.55q.27-.05.49-.05Z" />
  <path d="m75.838 86.713.11-2.408 7.232.329-.11 2.407zM75.841 93.344l.11-2.408 7.232.329-.11 2.407zM87.41 79.07h3.84v3.35h-3.84zM87.41 88.62h3.84v3.35h-3.84zM75.851 80.216l.091-2.408 7.235.274-.091 2.408z" />
  <path d="m71.89 119.98-.44-.16c-.33-.16-8.17-3.67-16.18-9.87-10.75-8.34-16.56-17.44-16.73-26.43.38-19.19.05-44.75.05-45.02v-1.04h66.9v1.04c0 .27-.05 26.16-.05 45.02 0 8.99-5.76 18.1-16.67 26.43-8.12 6.2-16.12 9.76-16.45 9.87l-.44.16Zm1.04-54.34v51.49c6.25-3.07 30.32-16.07 30.32-33.72V65.59l-30.32.05Zm-32.08 0c0 5.98-.05 12.17-.16 17.82.22 10.42 8.77 19.25 15.9 24.73 5.81 4.5 11.63 7.62 14.26 8.94V65.64h-30Zm0-2.08h62.46c0-11.02.05-20.89.05-24.07H40.68c.05 3.18.16 13 .16 24.07Z" />
</svg>