<?xml version="1.0" encoding="UTF-8"?>
<svg id="Layer_1" data-name="Layer 1" xmlns="http://www.w3.org/2000/svg" viewBox="0 0 144 144">
  <defs>
    <style>
      .cls-1 {
        fill: #830b2c;
      }

      .cls-1, .cls-2, .cls-3, .cls-4 {
        stroke-width: 0px;
      }

      .cls-2 {
        fill: #b81237;
      }

      .cls-3 {
        fill: #ffca38;
      }

      .cls-4 {
        fill: #ffe46d;
      }
    </style>
  </defs>
  <polyline class="cls-3" points="100.89 122.52 42.54 122.52 46.17 98.34 55.98 98.34 55.98 45.66 46.17 45.66 42.54 21.48 100.89 21.48 97.26 45.66 87.45 45.66 87.45 98.34 97.26 98.34 100.89 122.52"/>
  <polyline class="cls-2" points="83.74 102.05 83.74 41.95 94.07 41.95 96.58 25.2 46.86 25.2 49.37 41.95 59.69 41.95 59.69 102.05 49.37 102.05 46.86 118.8 96.58 118.8 94.07 102.05 83.74 102.05"/>
  <polyline class="cls-1" points="71.54 33.75 51.3 33.75 49.37 41.95 59.69 41.95 71.54 33.75"/>
  <polyline class="cls-1" points="83.74 41.95 94.07 41.95 92.14 33.75 71.54 33.75 83.74 41.95"/>
  <polyline class="cls-1" points="83.74 102.05 83.74 41.95 71.54 33.75 71.54 110.98 83.74 102.05"/>
  <polyline class="cls-1" points="92.25 110.98 51.19 110.98 46.86 118.8 96.58 118.8 92.25 110.98"/>
  <polyline class="cls-1" points="96.58 118.8 92.25 110.98 94.07 102.05 96.58 118.8"/>
  <polyline class="cls-1" points="94.07 41.95 92.14 33.75 96.58 25.2 94.07 41.95"/>
  <path class="cls-3" d="M102.75,120.58v.32h-.62v1.62h-.38v-1.62h-.61v-.32h1.62M104.85,122.52l-.07-1.14c0-.15,0-.33-.01-.54h-.02c-.05.17-.1.4-.16.58l-.35,1.08h-.4l-.34-1.1c-.03-.14-.1-.38-.14-.55h-.02c0,.18,0,.37-.02.54l-.07,1.14h-.37l.14-1.94h.58l.33.95c.05.15.09.29.13.49h.01c.04-.17.09-.34.13-.48l.33-.96h.56l.14,1.94h-.38Z"/>
  <path class="cls-1" d="M116.89,85.12c-.58-.18-1.16-.34-1.75-.51-.37,2.7-.73,5.4-1.1,8.1,9.81,2.75,19.41,6.48,28.66,11.19-.06-1.01-.12-2.03-.17-3.04-.2-3.81-.4-7.62-.6-11.42-2.91-1.46-5.85-2.83-8.82-4.1.18,1.96.37,3.93.56,5.89-2.21-.95-4.43-1.85-6.67-2.69v-5.93c1.96.74,3.91,1.52,5.85,2.35.3-2.37.6-4.74.89-7.11,2.61,1.13,5.19,2.33,7.75,3.6.22-3.79.43-7.57.65-11.35.06-.66.12-1.33.18-2-.69-.36-1.38-.71-2.07-1.05-7.97-3.89-16.2-7.05-24.58-9.49h0c-.43-.14-.85-.25-1.28-.38-.11-.03-.22-.06-.33-.1h0c-.17-.04-.35-.1-.52-.14-9.86-2.73-19.93-4.47-30.06-5.21-.73-.05-1.47-.1-2.2-.15.06.72.11,1.43.16,2.15.22,2.98.44,5.95.66,8.93,0,.09.01.17.02.26-1.13-3.38-2.26-6.75-3.39-10.1-.15-.46-.31-.93-.47-1.39-.49-.02-.98-.04-1.48-.05-3.17-.1-6.33-.1-9.5,0-.49.02-.98.04-1.47.06-.16.46-.31.92-.47,1.38-1.22,3.6-2.44,7.22-3.66,10.85.03-.33.05-.66.07-1,.22-2.98.44-5.95.66-8.93.05-.72.11-1.43.16-2.15-.73.05-1.47.1-2.2.15-10.12.76-20.19,2.51-30.05,5.25-.39.11-2.93.85-3.32.97-5.57,1.68-11.08,3.69-16.48,6.01-1.95.84-3.67,2.07-5.12,3.64-.28.3-.53.59-.77.89-1.85,2.32-2.78,4.78-2.78,7.26v6.47c0,2.52.94,4.09,2.71,4.59.11.04.23.06.35.08.01,0,.03,0,.04,0,1.47.32,3.34-.03,5.56-.98,2.72-1.17,5.46-2.26,8.22-3.26.21-.08.33-.09.38-.09.02.05.08.19.08.53v4.06c0,.34-.06.53-.08.58-.05.04-.17.11-.37.18-2.27.83-4.52,1.71-6.75,2.64.11-.77.22-1.54.33-2.31.11-.82.23-1.63.35-2.45-.75.31-1.5.63-2.26.95-2.14.93-4.27,1.9-6.38,2.92-.59.28-1.17.57-1.75.86-.05.64-.09,1.27-.13,1.91-.22,3.08-.44,6.16-.66,9.24-.06.74-.11,1.49-.16,2.23.68-.35,1.36-.69,2.04-1.02,5.62-2.76,11.37-5.16,17.2-7.21,2.18-.76,4.05-1.82,5.56-3.18.23-.21.42-.39.62-.59,1.91-1.98,2.92-4.33,2.92-6.84v-6.88c0-2.5-1.01-4.3-2.91-5.13,0,0-.02,0-.02-.01,0,0-.02,0-.03-.01-.17-.06-.34-.12-.52-.17-1.56-.44-3.45-.3-5.61.45-2.74.96-5.46,2-8.16,3.12-.2.08-.31.1-.37.11-.02-.04-.08-.18-.08-.53v-3.69c0-.31.05-.48.07-.54.05-.04.17-.12.38-.2,1.97-.82,3.94-1.59,5.94-2.32-.09.61-.54,3.48-.67,4.3.77-.29,1.54-.57,2.32-.84,2.09-.74,4.2-1.44,6.32-2.09.61-.19,1.22-.37,1.83-.55.05-.63.1-1.25.15-1.88.11-1.44.23-2.89.34-4.33.11,1.51.22,3.02.33,4.54.05.6.09,1.21.13,1.81.62-.18,1.24-.35,1.86-.52,1.89-.52,3.78-.99,5.67-1.44.77-.18,1.55-.36,2.32-.52-.11-.73-.22-1.47-.33-2.21-.1-.7-.21-1.41-.31-2.12.59-.13,1.19-.26,1.78-.38v18.79c-.32.07-2.12.46-2.7.59-.08.59-.17,1.18-.25,1.77-.22,1.52-.43,3.05-.65,4.57l-.34,2.36c.78-.18,1.55-.36,2.33-.53,4.49-.99,9.01-1.78,13.55-2.37.79-.1,1.57-.19,2.36-.29h0c.13-.02.26-.03.39-.05,2.61-.29,5.23-.51,7.85-.67.5-.03,1-.06,1.51-.08.15-.47.3-.95.45-1.42.94-2.97,1.89-5.92,2.83-8.87.15.22.3.43.44.64.2.29.41.59.61.89.37-.01.74-.02,1.11-.02,2.28-.03,4.56-.02,6.84.05.68,2.4,1.36,4.8,2.04,7.21.14.49.29.99.43,1.48.52.02,1.04.05,1.56.07,2.98.16,5.95.41,8.92.74.02,0,.05,0,.07,0h0c.79.09,1.58.19,2.36.29,4.54.58,9.07,1.37,13.55,2.35.78.17,1.56.35,2.33.53-.11-.79-.22-1.57-.33-2.36-.22-1.52-.43-3.05-.65-4.58l-.25-1.77c-.58-.13-1.16-.26-1.75-.39-.31-.07-.64-.13-.95-.2v-18.8c.6.12,1.19.25,1.78.38-.11.7-.21,1.41-.31,2.11-.11.73-.22,1.47-.33,2.21.77.17,1.55.34,2.32.52,1.9.44,3.79.92,5.68,1.43.62.17,1.24.34,1.86.52.05-.61.09-1.21.13-1.82.07-.99.14-1.97.22-2.96.02.14.03.28.05.42.75.22,1.5.44,2.24.66v4c-.74-.22-1.47-.44-2.21-.66.37,3.06.73,6.13,1.09,9.19.37.11.75.22,1.12.34v5.93c-.16-.05-.33-.1-.49-.15M126.99,69.74c2.12.8,4.23,1.65,6.32,2.55-.14,1.28-.28,2.55-.41,3.82-1.96-.83-3.92-1.62-5.91-2.37v-4ZM54.11,79.53c-.79.09-3.4.45-3.72.49v-18.79c.6-.08,1.2-.16,1.8-.24-.11.74-.21,1.48-.32,2.22l-.33,2.32c.78-.11,1.57-.2,2.35-.3,1.93-.22,3.86-.41,5.79-.57.56-.04,1.12-.08,1.68-.12-1.64,4.89-3.28,9.79-4.91,14.73-.78.08-1.56.16-2.34.25ZM69.57,70.11c.71-2.19,1.41-4.37,2.12-6.55.71,2.18,1.43,4.36,2.14,6.55-1.42-.01-2.84-.01-4.26,0ZM93.41,79.99c-.32-.04-.64-.09-.96-.13-.03,0-1.65-.23-2.43-.32-.79-.09-1.59-.18-2.39-.26-.02-.06-.04-.12-.06-.17.16.01.32.03.47.05.09-.55.18-1.1.27-1.66.23-1.39.46-2.78.69-4.17.12-.76.25-1.51.37-2.27-.8-.09-1.6-.17-2.39-.25-.78-.07-1.56-.14-2.33-.21-.68-2.03-1.35-4.04-2.02-6.06.49.03.99.07,1.48.11,1.93.15,3.86.34,5.79.56.79.09,1.57.19,2.36.29-.11-.77-.22-1.55-.33-2.32-.1-.74-.21-1.49-.32-2.22.6.08,1.2.16,1.8.24v18.79Z"/>
  <path class="cls-4" d="M25.53,74.84c-.13-.05-.27-.09-.4-.13-1.25-.35-2.77-.23-4.6.41-2.74.96-5.47,2-8.17,3.11-.91.38-1.55.35-1.94-.06-.28-.3-.44-.8-.44-1.53v-3.69c0-.78.18-1.46.52-2.03.39-.66,1.01-1.18,1.85-1.52,2.73-1.13,5.48-2.18,8.26-3.14h0c-.22,1.43-.45,2.86-.67,4.29,2.1-.74,4.2-1.43,6.32-2.08.22-2.89.45-5.79.68-8.68h0c-5.57,1.67-11.08,3.67-16.48,5.99-1.65.71-3.02,1.69-4.17,2.92-.21.22-.4.44-.59.68-1.36,1.69-2.01,3.42-2.01,5.25v6.47c0,1.87.65,3.01,1.96,3.39.09.03.19.05.29.07,1.18.26,2.68-.03,4.52-.82,2.72-1.16,5.46-2.25,8.23-3.25.85-.3,1.47-.27,1.87.08.36.3.55.86.55,1.67v4.06c0,.75-.16,1.38-.46,1.9-.4.7-1.05,1.22-1.95,1.55-3.03,1.1-6.04,2.3-9.01,3.59.23-1.59.45-3.18.68-4.77-2.14.92-4.27,1.89-6.38,2.91-.22,3.07-.44,6.15-.66,9.22,5.62-2.75,11.37-5.15,17.21-7.19,1.84-.64,3.35-1.49,4.55-2.59.15-.14.31-.28.45-.43,1.42-1.48,2.1-3.14,2.1-5.01v-6.88c0-1.87-.68-3.13-2.1-3.74"/>
  <path class="cls-4" d="M52,86.08c-.22-1.45-.44-2.89-.66-4.34-1,.13-2,.27-3,.43v-22.79c2.06-.32,4.12-.59,6.19-.82-.22,1.51-.43,3.02-.65,4.53,1.93-.22,3.86-.41,5.79-.56.22-2.98.44-5.96.66-8.94-10.12.75-20.19,2.49-30.05,5.22.21,2.91.42,5.81.64,8.71,1.88-.51,3.78-.99,5.67-1.43-.21-1.44-.42-2.87-.64-4.31,2.04-.48,4.08-.92,6.13-1.32v22.79c-1,.19-1.99.4-2.98.61-.21,1.52-.43,3.04-.65,4.57,4.49-.98,9.01-1.77,13.55-2.35"/>
  <path class="cls-4" d="M80.43,85.05c2.97.17,5.95.41,8.92.75.22-1.46.44-2.91.66-4.37-1.29-.15-2.58-.29-3.87-.41-.47-1.43-.94-2.86-1.41-4.29.52.04,1.04.09,1.56.14.23-1.39.46-2.78.68-4.18-1.27-.12-2.54-.23-3.81-.32-2.14-6.42-4.28-12.8-6.42-19.13-3.17-.1-6.33-.1-9.5-.01,0,0,0,0,0,0-3.12,9.15-6.23,18.4-9.33,27.74-1.27.12-2.55.25-3.82.39.22,1.45.44,2.91.66,4.37,2.61-.29,5.23-.51,7.85-.67,1.37-4.34,2.75-8.66,4.12-12.96.94,1.36,1.88,2.72,2.82,4.1,2.8-.04,5.6,0,8.4.1.82,2.9,1.64,5.81,2.46,8.72M66.76,72.05c1.63-5.1,3.26-10.18,4.9-15.23,1.66,5.05,3.31,10.12,4.96,15.23-3.29-.1-6.57-.1-9.86,0Z"/>
  <path class="cls-4" d="M105.33,88.46c-.22-1.52-.43-3.04-.65-4.57-.99-.22-1.98-.42-2.98-.61v-22.79c2.05.4,4.09.84,6.13,1.33-.21,1.43-.43,2.87-.64,4.31,1.9.44,3.79.92,5.68,1.44.21-2.91.43-5.81.64-8.71-9.86-2.74-19.93-4.49-30.06-5.24.22,2.98.44,5.96.66,8.94,1.93.15,3.86.34,5.79.57-.22-1.51-.43-3.02-.65-4.53,2.07.23,4.13.51,6.19.82v22.79c-1-.15-2-.3-3-.43-.22,1.45-.44,2.9-.66,4.34,4.54.58,9.07,1.37,13.55,2.36"/>
  <path class="cls-4" d="M140.22,69c-7.76-3.8-15.77-6.91-23.92-9.34.19,1.53.38,3.06.58,4.59.83.25,1.65.5,2.47.77v7.99c-.64-.21-1.29-.41-1.94-.61.2,1.69.4,3.38.6,5.07.45.14.9.28,1.34.43v9.92c-.82-.26-1.65-.52-2.47-.77-.19,1.42-.38,2.83-.58,4.25,8.32,2.48,16.47,5.67,24.38,9.57,0,0,0,0,0,0-.19-3.45-.37-6.89-.55-10.34-1.63-.79-3.27-1.56-4.91-2.29.19,1.97.37,3.93.56,5.9-3.54-1.6-7.12-3.05-10.75-4.37v-9.92c2.05.74,4.08,1.53,6.1,2.36.19-1.55.39-3.09.59-4.64-2.21-.92-4.44-1.79-6.68-2.6v-7.99c3.51,1.28,6.98,2.68,10.42,4.22-.18,1.71-.37,3.42-.56,5.13,1.61.71,3.2,1.45,4.79,2.22.18-3.18.36-6.36.55-9.53"/>
  <path class="cls-3" d="M20.4,77.39c-1.7.54-8.17,3.06-9.62,3.73-1.17.5-2.07.61-2.72.39-.71,1.01-1.41,2.02-2.12,3.04,1.18.26,2.68-.03,4.52-.82,2.72-1.16,5.46-2.25,8.23-3.25.85-.31,1.47-.27,1.87.08.85-1.1,1.7-2.2,2.56-3.29-.69-.26-1.62-.26-2.72.12"/>
  <path class="cls-3" d="M6.85,73.53v5.67c0,1.27.42,2.04,1.21,2.31.78-1.12,1.57-2.22,2.36-3.33-.28-.3-.43-.8-.43-1.53v-3.69c0-.78.18-1.46.52-2.03-.74-.4-1.48-.79-2.21-1.18-1,1.16-1.45,2.5-1.45,3.79"/>
  <path class="cls-3" d="M25.53,74.84c-.13-.05-.27-.09-.4-.13-.67.84-1.34,1.69-2.01,2.55.82.31,1.32.99,1.32,1.92v7.21c-.02,1-.58,2.31-1.37,3.26.67.41,1.34.83,2.02,1.26.15-.14.31-.28.45-.43,1.42-1.48,2.1-3.14,2.1-5.01v-6.88c0-1.87-.68-3.13-2.1-3.74"/>
  <path class="cls-3" d="M11.26,67.65c-1.28.54-2.25,1.27-2.95,2.08.73.39,1.47.78,2.21,1.18.39-.66,1.01-1.18,1.85-1.52,2.73-1.13,5.48-2.17,8.26-3.14h0c1.04-1.09,2.09-2.18,3.14-3.25-4.22,1.37-8.39,2.92-12.5,4.65"/>
  <path class="cls-3" d="M23.14,67.22c-1.06,1.09-2.12,2.2-3.18,3.32,2.09-.74,4.2-1.43,6.31-2.08-1.04-.42-2.09-.84-3.13-1.24"/>
  <path class="cls-3" d="M23.07,89.66c-.43.51-.92.93-1.44,1.12-5.05,1.72-10.04,3.71-14.94,5.96-1.13,1.3-2.25,2.62-3.37,3.95,5.62-2.75,11.37-5.15,17.21-7.19,1.84-.64,3.35-1.49,4.55-2.59-.67-.42-1.34-.84-2.02-1.26"/>
  <path class="cls-3" d="M10.36,88.55c-1.07,1.23-2.14,2.47-3.2,3.72-.16,1.49-.31,2.98-.47,4.47.99-1.15,1.99-2.29,2.99-3.42.23-1.59.45-3.18.68-4.77"/>
  <path class="cls-3" d="M23.76,63c-.21,1.41-.41,2.81-.62,4.22,1.04.4,2.08.81,3.13,1.24.22-2.89.45-5.79.68-8.68-1.07,1.06-2.13,2.13-3.19,3.22"/>
  <path class="cls-3" d="M36.59,66.1c-.99-.51-1.98-1.01-2.97-1.5-.9.97-1.8,1.94-2.7,2.93,1.88-.51,3.77-.99,5.67-1.43h0"/>
  <path class="cls-3" d="M36.59,66.1c-.21-1.44-.42-2.87-.64-4.31-.95-.51-1.9-1.01-2.85-1.51.17,1.44.34,2.88.52,4.32.99.49,1.98.99,2.97,1.5"/>
  <path class="cls-3" d="M45.21,57.68c-4.06.7-8.1,1.57-12.1,2.6.95.49,1.9.99,2.85,1.51,2.04-.48,4.08-.92,6.13-1.32,1.04-.94,2.08-1.87,3.13-2.78"/>
  <path class="cls-3" d="M45.21,84.76c0-9.03,0-18.05,0-27.07,1.04.55,2.09,1.12,3.14,1.7v22.79c-1.05.85-2.09,1.71-3.13,2.59"/>
  <path class="cls-3" d="M53.88,63.1c1.01-.86,2.02-1.7,3.03-2.54.92.65,1.84,1.31,2.76,1.98-1.93.15-3.86.34-5.79.56"/>
  <path class="cls-3" d="M57.48,56.06c.95-.83,1.9-1.65,2.86-2.46-.22,2.98-.44,5.96-.66,8.94h0c-.92-.67-1.84-1.33-2.76-1.98.19-1.5.38-3,.56-4.5"/>
  <path class="cls-3" d="M45.2,57.68c4.07-.71,8.16-1.25,12.27-1.63-.98.83-1.96,1.66-2.94,2.51-2.07.23-4.13.5-6.19.82-1.05-.58-2.09-1.15-3.14-1.7"/>
  <path class="cls-3" d="M52,86.08c-.78-.68-1.55-1.36-2.33-2.04-2.98.43-5.95.94-8.91,1.54-.77.94-1.54,1.89-2.31,2.84,4.49-.98,9.01-1.77,13.55-2.35"/>
  <path class="cls-3" d="M51.34,81.74c-.56.76-1.12,1.53-1.67,2.3.78.67,1.55,1.35,2.33,2.04-.22-1.45-.44-2.89-.66-4.34"/>
  <path class="cls-3" d="M55.81,83.27c-.35.83-.7,1.65-1.05,2.48,2.61-.29,5.23-.51,7.85-.67-.78-.74-1.56-1.48-2.34-2.21-1.49.11-2.98.24-4.47.4"/>
  <path class="cls-3" d="M84.73,76.75c.52.04,1.04.09,1.56.14-.33-.74-.66-1.49-.99-2.23-1.53-.13-3.06-.24-4.59-.33,1.34.79,2.68,1.6,4.02,2.42"/>
  <path class="cls-3" d="M88.3,83.32c-1.6-.17-3.2-.32-4.8-.43-1.02.71-2.05,1.43-3.07,2.16,2.98.16,5.95.41,8.92.75-.35-.83-.7-1.66-1.05-2.48"/>
  <path class="cls-3" d="M83.17,72.38c-2.14-6.42-4.28-12.8-6.42-19.13-.76.71-1.52,1.44-2.28,2.16,2.08,6.26,4.16,12.57,6.24,18.91.82-.65,1.64-1.3,2.46-1.94"/>
  <path class="cls-3" d="M69.31,55.41c-3.01,9.07-6.03,18.22-9.03,27.46.78.73,1.56,1.47,2.34,2.21,3.01-9.51,6.03-18.93,9.05-28.27-.79-.47-1.57-.94-2.35-1.4"/>
  <path class="cls-3" d="M80.71,74.33c-3.49-.2-6.98-.28-10.48-.25-.22.72-.45,1.43-.67,2.15,2.8-.04,5.6,0,8.4.1.92-.68,1.83-1.34,2.75-2.01"/>
  <path class="cls-3" d="M86.14,81.03c-.47-1.43-.94-2.86-1.41-4.28-1.34-.83-2.68-1.63-4.02-2.42.93,2.85,1.86,5.7,2.79,8.56.88-.62,1.76-1.24,2.64-1.85"/>
  <path class="cls-3" d="M86.29,76.89c-.33-.74-.66-1.49-1-2.23.56-.65,1.12-1.3,1.68-1.95-.23,1.39-.46,2.79-.68,4.18"/>
  <path class="cls-3" d="M89.35,85.8c-.35-.83-.7-1.66-1.05-2.48.57-.63,1.14-1.26,1.71-1.88-.22,1.46-.44,2.91-.66,4.37"/>
  <path class="cls-3" d="M69.31,55.41c.78.46,1.57.93,2.35,1.4.94-.47,1.87-.94,2.81-1.4-1.72-.03-3.44-.03-5.16,0"/>
  <path class="cls-3" d="M89.9,63.11c-1.01-.86-2.02-1.7-3.03-2.54-.92.65-1.84,1.31-2.76,1.98,1.93.15,3.86.34,5.79.57"/>
  <path class="cls-3" d="M89.9,63.11c-.22-1.51-.43-3.02-.65-4.53-.97-.84-1.93-1.68-2.9-2.51.17,1.5.35,3,.52,4.5,1.01.84,2.02,1.68,3.03,2.54"/>
  <path class="cls-3" d="M98.58,57.71c-4.06-.71-8.14-1.25-12.23-1.64.97.83,1.94,1.66,2.9,2.51,2.07.24,4.13.51,6.19.82,1.05-.58,2.09-1.14,3.14-1.69"/>
  <path class="cls-3" d="M98.58,84.78v-27.07c1.04.92,2.08,1.85,3.13,2.79v22.79c-1.04.49-2.08.99-3.13,1.5"/>
  <path class="cls-3" d="M107.19,66.13c1-.51,1.99-1.01,2.98-1.5.9.97,1.8,1.95,2.7,2.93-1.88-.51-3.77-.99-5.67-1.43"/>
  <path class="cls-3" d="M110.71,60.33c.93-.5,1.86-.99,2.79-1.47-.22,2.9-.43,5.81-.64,8.71h0c-.9-.99-1.8-1.96-2.7-2.93.18-1.44.37-2.87.55-4.31"/>
  <path class="cls-3" d="M98.58,57.71c4.07.71,8.12,1.58,12.14,2.62-.96.49-1.92.99-2.89,1.49-2.03-.48-4.08-.93-6.12-1.33-1.04-.94-2.08-1.87-3.13-2.79"/>
  <path class="cls-3" d="M105.33,88.46c-.77-.95-1.54-1.9-2.31-2.84-2.96-.6-5.93-1.12-8.91-1.56-.78.68-1.56,1.35-2.33,2.04,4.54.58,9.07,1.37,13.55,2.36"/>
  <path class="cls-3" d="M104.68,83.9c-.55.57-1.1,1.15-1.66,1.72.77.94,1.54,1.89,2.31,2.84-.22-1.52-.43-3.04-.65-4.57"/>
  <path class="cls-3" d="M137.75,70.04c-.17,2-.35,4.01-.52,6.01.82.82,1.63,1.65,2.44,2.49.19-3.18.37-6.36.55-9.53-.82.34-1.64.68-2.47,1.04"/>
  <path class="cls-3" d="M137.75,70.04c-5.12-2.39-10.33-4.49-15.62-6.3.97,1.06,1.93,2.14,2.89,3.22,3.51,1.28,6.98,2.68,10.42,4.22.77-.39,1.54-.77,2.32-1.14"/>
  <path class="cls-3" d="M122.13,63.74v12.53c.97-.45,1.93-.89,2.89-1.32v-7.99c-.96-1.08-1.93-2.16-2.89-3.22"/>
  <path class="cls-3" d="M125.02,79.84c2.05.74,4.08,1.53,6.1,2.36-.29-.97-.59-1.94-.88-2.91-2.68-1.09-5.38-2.09-8.11-3.02.97,1.18,1.93,2.37,2.89,3.57"/>
  <path class="cls-3" d="M122.13,76.27v14.52c.97-.35,1.93-.69,2.89-1.02v-9.92c-.96-1.2-1.93-2.39-2.89-3.57"/>
  <path class="cls-3" d="M140.12,90.51c-.83.02-1.66.06-2.5.1.19,2.22.37,4.44.55,6.67.83,1.18,1.67,2.38,2.5,3.58-.18-3.45-.37-6.89-.55-10.34"/>
  <path class="cls-3" d="M138.18,97.28c-6.63-3.12-13.44-5.76-20.35-7.89-.51.63-1.02,1.27-1.53,1.91,8.32,2.48,16.47,5.67,24.38,9.57-.83-1.2-1.67-2.4-2.5-3.58"/>
  <path class="cls-3" d="M122.13,76.27c-1.07-.37-2.14-.72-3.22-1.06-.3.75-.6,1.51-.9,2.26.45.14.9.28,1.34.43.93-.55,1.85-1.1,2.78-1.63"/>
  <path class="cls-3" d="M122.13,63.74c-1.44-.49-2.88-.96-4.32-1.4-.31.64-.62,1.27-.93,1.92.83.25,1.65.51,2.47.77.93-.44,1.85-.86,2.78-1.28"/>
  <path class="cls-3" d="M131.11,82.2c-.29-.97-.59-1.94-.88-2.91.49-.58.98-1.16,1.47-1.73-.2,1.54-.39,3.09-.59,4.64"/>
  <path class="cls-3" d="M134.88,76.31c.79-.09,1.57-.18,2.35-.26.82.82,1.63,1.65,2.45,2.48-1.59-.77-3.19-1.51-4.79-2.22"/>
</svg>