<svg 
 xmlns="http://www.w3.org/2000/svg"
 viewBox="0 0 30.61 48.39"
 fill="currentColor">
  <path class="cls-2" d="M23.08 25.82c-.09.05-.19.09-.35.09-.19 0-.39-.06-.47-.01.05.2.57.15.88.15-.26.25-.57.25-.93.2 0 0 0 .05.1.09.2.08.45.12.62.16-.15.05-.31.15-.83.05.05.15.47.3.68.35a.95.95 0 0 1-.47.15c-.25 0-1-.33-1.23.16-.02.04-.01.07 0 .1l.04.09c.03.05-.01.14-.02.15-.08.17-.35.15-.49.06a.21.21 0 0 1-.09-.11c-.03-.07-.05-.15 0-.22h.08c.34.03.19-.37-.11-.27-.09.04-.15.13-.26.15-.02 0-.06 0-.09-.04-.1-.13-.1-.43.04-.46.04 0 .07.02.07.03.11.14.39-.01.32-.19l-.05-.09c-.09-.09-.32-.03-.23-.25.05-.1.16-.31.31-.31.13 0 .15.15.21.25.03.05.16.25.31.25.42 0 .73-.6.57-1-.21-.55-.88-.35-1.4-.44-1.33-.2-1.69-.98-2.51-1.97l-.08-.06c-.07-.03-.13-.03-.22.02-.62.3-1.08.55-1.75.85-.11.05-.21.1-.37.15.11-.15.31-.41.42-.56-.42.19-.73.5-1.3.75-.05 0-.11 0-.11-.05.06-.15.16-.2.26-.5-.05-.05-.08 0-.15.05-.57.4-.88.75-1.4.65 0 .1.21.3.52.4-.15.15-.67.1-.93-.06-.05.25.41.4.52.45-.26.2-.78 0-1.04-.1-.05 0 0 .05 0 .05.15.3.78.35 1.04.35-.42.2-.83.31-1.3.05-.11.15.41.45.52.5 0 .1-.57.05-.94-.25-.05.15.42.44.47.5-.2.2-.63.02-.78-.04a.27.27 0 0 0-.08-.03l-.02.02c.05.2.31.31.52.4-.42.2-.73-.05-.89-.2-.1 0-.47.35-.47.4-.05.1 0 .2-.05.35-.04.09-.12.29-.18.31l-.05-.02c-.05-.06.02-.29-.07-.33-.47-.2-.42.25-.62.4-.21.1-.52-.25-.52-.35 0-.04.04-.16.15-.09l.06.04H9c.09-.03.09-.1.09-.15 0-.15-.05-.25-.26-.2-.05.02-.05.09-.13.11h-.08c-.15-.16-.15-.51-.05-.56.16-.05.21.15.36.1.11-.05.11-.35 0-.4-.09-.05-.24.12-.34.03v-.07c.05-.19.19-.4.29-.4.14 0 .15.26.33.4.03.02.18.11.23.13.34.16.72.1.95.02.94-.4.52-1.05.83-1.2.67-.3.37-.6.62-.75.05.05.05.3.2.36.06-.31.11-.5.42-.4.1.15.21.3.36.4.06 0 .06-.36.06-.5.26.2.67.2.62.1-.05-.05-.26-.3-.26-.4.26.15.68.06.62-.05-.05-.05-.1-.1-.1-.15.05-.1.26-.1.36-.1 0-.2-.2-.45 0-.7.16.1.21.2.42.2 0-.15-.05-.35.05-.5.47 0 .83 0 1.14-.05.67-.15 1.19-.4 1.91-.55.21-.05.36-.1.57-.15.29 0 .6.25.75.47.04.06.17.31.22.37.18.23.39.45.64.61.21.15.42.35.52.6.1.17.14.38.23.57.04.1.15.27.28.33.53.27 1.01-.39 1.26-.16l.04.06.04.06.08.03c.36 0 .62-.05.93-.2.06 0-.41.55-.93.61.1.1.83-.06.99-.15-.11.3-.52.5-.93.45h-.03s.01.03.1.07c.2.04.57.08.7.08 0 .1-.78.1-.78.25.62-.1.68.1.93 0 .06.06-.04.16-.17.23"/>
  <path class="cls-2" d="M22.01 27.18c0 .07.02.24-.16.32 0-.25 0-.3-.21-.45-.05-.04.21 0 .34.08l.04.05ZM19.93 27.75c.15 0 .31 0 .41-.1.06.05.11.1.16.15-.1.1-.52.1-.57-.05M19.57 26.15c.06-.1.42-.35.63-.2-.05.05-.11.25-.11.25-.2-.1-.31-.1-.52-.05M18.74 25.45c.11.05.23.21.26.25.04.06.05.19-.05.25-.21.1-.62.5-.21.95-.57-.1-.41-.5-.26-.85.03-.06-.02-.08-.05-.05-.36.35-.26.7-.42 1-.2-.25-.1-.65.06-.85 0 0-.02-.02-.06 0-.26.15-.41.6-.52.85-.18-.19-.03-.67 0-.7 0 0 0-.03-.05 0-.26.2-.36.5-.47.8-.2-.15-.15-.4-.15-.6-.15.1 0 .57-.38.69h-.06c-.06-.05 0-.1.03-.14.08-.11.1-.22.04-.32l-.14-.13a.823.823 0 0 0-.56-.2c-.2.03-.47.2-.62.45-.05.06-.15.09-.26.05-.21-.05-.41-.4-.21-.56.11-.05.16.1.32.05.09-.05.1-.32-.07-.36-.05 0-.09 0-.15.01-.1.04-.15.14-.21.08l-.04-.07c-.03-.15.01-.47.22-.48.05 0 .07.04.08.05.04.07.08.1.12.1.22 0 .22-.15.18-.28 0-.02-.03-.08-.08-.08-.11-.01-.26.05-.3-.04-.11-.15.1-.4.26-.4.2 0 .15.25.36.3.1.05.28.06.42.15.05.03.08.05.1.1.1.45.78.4 1.14.35.73-.1 1.14-.6.62-.94-.31-.2-.77-.06-1.14-.11-.57-.1-.67-.35-.52-.75.05-.1.3-.16.37-.2.07-.04.36-.25.36-.15-.09.13-.14.35-.23.54l-.02.08s.06.05.1.02c.31-.3.31-.4.72-.65.16.35.58.35.67 0 .26.25.59.58.57.65-.05.2-.15.5-.15.75.03.19.26.28.41.35"/>
  <path class="cls-2" d="M15.74 27.05c.15-.15.2-.25.26-.4.04-.06.14.01.2.05.16.1-.31.4-.46.35M14.13 25.15c.11-.15.37-.25.47-.1-.03.05-.05.14-.09.19h-.06c-.11-.04-.21-.09-.32-.09M8.66 27.21c.08.02.15.16.15.22l-.03.05c-.08.08-.41.08-.5.03a.72.72 0 0 0 .35-.28h.03ZM8.46 25.67c-.05 0-.18-.06-.34-.01.1-.19.3-.2.45-.2h.02c0 .05-.04.09-.08.17l-.05.05ZM10.41 23.7l-.02-.06s-.04-.02-.09.02c-.47.3-.78.19-.83.19.52-.3.42-.35.68-.75-.1-.15-.42.2-.62.15.09-.04.14-.14.23-.3l.05-.12c.11-.24.28-.29.28-.29-.11-.1-.67.3-.67.3.15-.49.41-.59.46-.83v-.07l-.06.02c-.36.37-.61.43-.86.43.06-.25.86-.4.93-.83v-.03c-.07 0-.17.16-.36.21-.16.05-.37.05-.42.05.21-.25.31-.3.52-.5-.21 0-.47.11-.68.11v-.04l.02-.03c.31-.23.66-.19.66-.49 0-.08-.04-.17-.12-.23l-.08-.02c-.17 0-.47-.02-.42-.19.31.1.57-.06.46-.35-.09-.18-.27-.15-.45-.11-.06.02-.09 0-.1 0-.13-.11-.03-.33.06-.37l.07-.03c.12-.04.22.13.3 0l.02-.08c.01-.29-.31-.16-.31-.3.05-.2.31-.31.47-.31.14 0-.07.27.19.3.04 0 .11-.03.16-.08.18-.18-.1-.22-.1-.27 0-.18.38-.15.49-.07.06.03.12.13.05.2-.08.08-.16.16-.21.31-.03.09-.16 1.2.01 1.67.03.06.04.08.06.09.1.1.23.07.32.16.16.15.57.85.52.9-.1.15-.26.25-.36.35 0 .1.16.1.26.15.05 0-.31.35-.52.45v.05c.16.15.36.05.52.15-.1.25-.16.25-.31.5.05.1.57-.05.67 0 .05.38-.77.45-.87 0M8.64 18.69c.16-.05.42.05.47.1 0 0-.03.04-.06.09-.04.07-.09.14-.1.11-.15-.3-.41-.25-.31-.3M9.66 18.45a.382.382 0 0 0-.19-.16c.21-.05.42 0 .52.2-.08 0-.16.06-.24.04-.04-.01-.07-.05-.09-.08"/>
  <path class="cls-2" d="M12.22 20.4c.16.1.21.25.26.35v.2s-.1.05-.16.05c-.62.25-.41.9-1.19 1.3h-.05c.52-.45.46-1.4 1.14-1.9M12.17 20.29c-.47.3-.47.75-.99.65v-.03c.57-.48.53-.77.88-.92 0 .1.06.2.11.3M12.17 19.45c-.05.15-.05.2-.16.4-.41.1-.31.56-.83.65h-.1c.1-.6.67-.95 1.09-1.05M11.39 19.48c.16-.18.48-.3.62-.36l.07-.02c.08 0 .08.06.13.1v.09c0 .05-.02.07-.03.07-.16.08-.41.05-.75.14-.05.02-.07 0-.05-.02M11.49 18.94c.16-.1.31-.15.52-.2v.2c-.15 0-.36.05-.57.1-.07.02 0-.07.05-.1M12.17 18.4c-.05.05-.11.15-.16.2-.15 0-.31-.05-.47-.15.42-.3.67-.1.63-.05M12.68 18.34c-.05.05-.11-.1-.37 0-.05 0-.1 0-.2-.1-.08-.09-.11-.05-.21-.2.31 0 .57 0 .78.3M13.2 18.49h-.31c-.11-.2-.26-.4-.32-.65.42.1.63.45.63.65M13.72 18.24c-.05.15-.11.25-.16.4 0 .04-.05-.05-.21-.1-.15-.3-.2-.5-.26-.85.32.2.47.35.63.55M14.45 17.94h.26c0 .05-.03.07-.06.1-.26.2-.52.45-.67.7h-.26c.05-.3.21-.75.73-.8M14.63 18.32c.08-.03.39-.11.44-.11.17 0 .35.07.51.04.05-.01.05 0 .05 0-.1.15-.26.1-.52.15-.41.05-.52.15-.78.44-.1 0-.1-.05-.15-.05.11-.29.23-.4.44-.47"/>
  <path class="cls-2" d="M15.68 18.44c-.05.14-.14.32-.28.34h-.08c-.23.05-.43.02-.67.2-.05 0-.05-.05-.1 0s-.18-.08-.16-.1c.52-.5.78-.4 1.24-.5 0 0 0 .05.05.05M15.68 19.09l-.05.06c-.21.1-.36-.06-.57.05-.05.04-.05-.05-.1-.1-.06 0-.17-.05-.16-.05.31-.15.57-.2.88.05M15.12 20.45c-.1-.25-.26-.45-.47-.6.32-.05.32-.1.32-.1.15 0 .36.1.46.3.16.55.06.85.26 1.65-.31-.05-.41-.9-.57-1.25"/>
  <path class="cls-2" d="m14.5 20.15.05-.2c.05-.05.1 0 .16.05.52.45.26 1.3.78 1.75.05.1-.32 0-.42-.15-.31-.44-.16-.8-.57-1.45M14.19 20.54q.05 0 .1-.05c.05-.05.1-.2.1-.15.21.2.37.61.37 1 .1.45.31.6.26.6-.16-.05-.31-.15-.42-.25-.1-.2-.1-.55-.41-1.15M13.82 20.79s.21-.1.26-.15c.16.25.26.6.26.9.11.3 0 .65-.05.9-.36-.3-.21-.8-.31-1.2-.05-.15-.11-.3-.16-.45M12.48 19.34s-.05-.19.1-.25c.06 0 .11-.05.16-.1.05 0 .1.1.16.15-.06.15-.21.25-.16.4 0 0 .05.05.1.05.11-.05.21-.1.26-.25h.06s.05 0 .05.06c0 .05-.05.15-.05.19-.06.11-.21.15-.26.2-.06.05-.16.05-.16.1.05.1.1.15.16.19.05.06.1 0 .15 0 0 .06-.05.11-.05.2-.05 0-.16-.05-.21-.05-.05-.05-.1-.1-.1-.15 0-.05 0-.14-.05-.19h-.16s-.05.05-.05.1 0 .1.05.1c.1 0 .1.11.16.15.05.1.2.1.1.2-.05 0-.05.05-.1.1-.06 0-.06-.05-.06-.1-.1-.15-.2-.3-.31-.5.05-.2.16-.4.21-.61"/>
  <path class="cls-2" d="M13.41 19.29c-.16-.05-.63-.5-.68-.5 0 0-.04.17-.24.2-.02 0-.07.01-.11-.02-.11-.08-.14-.32-.02-.46.02-.03.12-.05.16-.05.08 0 .15.05.22.18.21 0 .47.05.62.15.11 0 .16.1.16.2-.05.1-.05.25-.1.3M14.34 19.34c-.15-.05-.62.15-.83 0 .05-.15.21-.4.42-.4.15-.05.41.15.46.3 0 0 .06 0 .11-.05.1 0 .21 0 .31.1.05.05.05.1 0 .2-.05.05-.26.25-.36.05-.06-.05 0-.15-.11-.2M13.41 19.95c.05.1.1.14 0 .2 0 0-.06.05-.06 0L13.2 20c-.11-.1-.21 0-.31 0v-.1c.26-.05.36-.25.46-.45h.06c.05.05-.16.3 0 .5M12.89 21.04c.1-.15.2-.65.26-.55.2.4-.26.9-.37.85-.1 0-.21-.6.11-.9 0-.05.05 0 .05 0-.05.2-.11.4-.11.6h.06Z"/>
  <path class="cls-2" d="M13.72 20.24s-.05 0-.11.05c0 .15-.41.05-.46 0v-.2c.05-.05.1.15.2.15.11.05.11 0 .21-.1.05 0 0-.06 0-.06-.1-.14-.15-.4-.05-.6h.1c.11.1 0 .3.11.35.05.05.1.1.15.1.16-.05.06-.2.11-.36.05-.05.15-.15.31-.15 0 .05 0 .1.05.15 0 .06.16.11.05.15-.1.15-.15.35-.2.55-.11.15-.52.3-.83.5-.05-.05 0-.15-.05-.3.11 0 .21 0 .31-.05.06 0 .21.05.26-.05 0-.11-.05-.2-.15-.15M10.76 23c.58-.4.73-.8 1.14-1.25 0 .2 0 .55-.21.85-.21.31-.73.35-.94.4M12.27 23.59c-.1.1-.15.1-.26.31 0 0-.15-.4-.05-.6.05-.05.16-.15.21-.25.05.15.05.4.1.55"/>
  <path class="cls-2" d="M12.17 22.79c-.05.25-.63.86-1.24.75 1.5-.9.88-1.65 1.24-2.2.1-.05.15-.19.31-.19 0 .19.16.3.1.4-.15.3-.36.9-.41 1.25M12.68 24.05c-.31-.3-.37-1-.37-1.4.06-.25.16-.81.32-1.06 0 0 0 .06.05.06.15 0 .15-.06.31-.15 0 .95-.57.8-.31 2.55"/>
  <path class="cls-2" d="M13.2 23.84c-.37-.05-.47-.55-.37-1.15.06-.45.32-.75.26-1.3.06 0 .16-.15.16-.25.36.75-.36 1.7.26 2.3-.36.1-.47-.35-.47-.25-.05.2.05.45.16.65"/>
  <path class="cls-2" d="M13.87 23.05c-.26-.2-.31-.3-.41-.55-.05-.45.15-.9-.05-1.35 0-.06-.11-.15 0-.15.1-.05.2-.1.26-.15.2.2.2.85.2 1.06-.05.44-.15.65 0 1.15M15.79 20.2s0 .05-.05.05c-.06 0-.16-.05-.21-.25-.05-.2-.26-.35-.47-.4.05-.1 0-.19 0-.3.16-.05.31-.05.42.05.15.11.05.36.26.75 0 .06.05.06.05.11M15.84 20.59l.05-.05c.26.55.88.6 1.45.5 1.04-.15 2.43-.7 3.31-.7.31 0 1.04.15 1.04.61 0 .3-.11.45-.32.65-.31.2-1.09.25-1.39.25-.23 0-.86 0-1.11-.2-.04-.03-.17-.14-.21-.15-.15-.06-.29-.09-.49-.09-.73 0-1.55.4-2.17.4-.11 0-.21-.9-.16-1.2M18.33 20.09c0 .06-.78.31-1.09.31-.57 0-.67-.25-.67-.5-.05-.31.52-.75.88-.56.31.2.52.56.88.75"/>
  <path class="cls-2" d="M16.31 19.19c.31-.3.88-.45.88-.75.05-.38-.37-.43-.41-.45.15-.1.52.05.62.25.05.05.05-.35-.05-.55 0 0 .04 0 .11.04.41.29.4.68.25.96-.02.04.07.11.11.05.19-.39.69-.35 1.06-.49h.05l.03.04c-.09.05-.15.14-.2.19v.03s.05.03.1.03c.67 0 1.04-.3 1.09-.25 0 .05-.11.3-1.09.55-.21.31.15.56.1.61-.26.05-.42-.11-.42-.35 0-.04 0-.05-.03-.05l-.04.03c-.26.35.24.83.59.92v.05s-.08.02-.15 0c-1.05-.19-.84-1-1.72-.96-.03 0-.1 0-.14.02-.26.08-.63.36-.72.69-.05.3.15.65.41.75.73.2 1.29-.15 1.92-.4.31.1.62.05.78-.1 0 0-.21-.05-.26-.15h.09c.34-.06.48-.17.43-.56.26 0 .52.31.57.4.16 0-.1-.45-.16-.55.32.1.57.15.73.5.16 0-.1-.65-.05-.61.52.25.47.7.52.65.16-.2.05-.4.1-.55.31.14.56.34.43.63v.05l.04.03c.11 0 .26-.31.26-.35.16.2.26.45.16.65-.02.04-.04.05-.05.07v.03c.06.03.11 0 .15-.01.26-.15.21-.45.37-.55.14.53.06.82-.45.98-.09.03-.13.07-.13.07.06.25 0 .5-.1.7-.16.4-.47.55-.83.7-.52.2-1.55.15-1.97-.15-.07-.06-.1-.1-.15-.15.67.19 2.43.3 2.74-.65.26-.65-.36-1.1-.88-1.15-1.09-.1-2.02.35-3.31.75-.62.15-1.71.1-1.71-.75-.05-.35.06-.65.37-.9M19.57 27.25c0-.1.16-.4.32-.4 0 .1.05.2.1.31.05.05-.31.05-.42.1M14.39 26.85c-.26 0-.31.05-.46.1 0-.1.28-.33.44-.3l.02.03c0 .08 0 .08.06.17h-.06ZM14.29 26s-.03.04-.07.02l-.07-.03a.46.46 0 0 0-.33.01c.05-.15.31-.25.47-.2.05 0-.05 0 0 .2M8.38 26.57h-.04c-.12-.03-.19-.02-.37.08.05-.2.36-.31.41-.25v.17ZM8.7 19.72l-.02.03c-.15.02-.29-.35-.24-.41.06 0 .06.15.32.2 0 .04-.04.12-.05.18"/>
  <path class="cls-1" d="M16.2 26.7c-.06-.04-.16-.11-.2-.05-.06.15-.11.25-.26.4.15.05.62-.25.46-.35M9.66 18.45s.04.06.09.08c.08.02.16-.04.24-.04-.1-.2-.31-.25-.52-.2.09.04.14.09.19.16M20.19 25.95c-.21-.15-.57.1-.62.2.21-.05.32-.05.52.05 0 0 .06-.2.11-.25M8.95 18.99s.06-.05.1-.11c.03-.05.07-.08.06-.09-.05-.05-.31-.15-.47-.1-.1.05.16 0 .31.3M12.89 20.45c-.32.3-.21.9-.11.9.11.05.57-.45.37-.85-.06-.1-.16.4-.26.55h-.06c0-.2.06-.4.11-.6 0 0-.05-.05-.05 0M14.36 26.65c-.16-.02-.44.21-.44.3.15-.05.2-.1.46-.1h.06c-.05-.09-.06-.1-.06-.17l-.02-.03ZM8.58 25.45c-.16 0-.35 0-.45.2.16-.04.29 0 .34.01l.05-.05c.04-.07.08-.11.08-.15h-.02ZM8.66 27.21h-.03c-.1.15-.2.25-.35.3.09.05.42.05.5-.03l.03-.05c0-.06-.07-.2-.15-.22M14.51 25.24c.04-.05.06-.14.09-.19-.1-.15-.36-.05-.47.1.11 0 .21.05.32.1h.06ZM7.97 26.65c.18-.1.25-.1.37-.07h.04v-.18c-.05-.05-.36.05-.41.25M14.29 25.8c-.16-.05-.42.05-.47.2.1-.05.19-.05.33-.01l.08.03s.07.03.06-.02c-.05-.2.05-.19 0-.2M8.43 19.34c-.05.05.1.42.24.41l.02-.03c.01-.05.05-.14.05-.18-.26-.05-.26-.2-.32-.2M19.93 27.75c.05.15.47.15.57.05-.05-.05-.1-.1-.16-.15-.1.1-.26.1-.41.1M19.88 26.85c-.16 0-.32.31-.32.4.11-.05.47-.05.42-.1-.05-.1-.1-.2-.1-.31M21.97 27.13c-.13-.09-.38-.12-.33-.08.21.15.21.2.21.45.18-.08.17-.25.16-.32l-.04-.05Z"/>
  <path class="cls-1" d="M30.54 0H.08v30.78c0 1.29.76 2.47 1.96 3.04l13.27 6.34 13.26-6.29c1.2-.57 1.96-1.75 1.96-3.05V0Zm-.68 18.01h-8.93V8.43h8.93v9.58Zm-1.81 6.16-.91-.39-.36.9-.36-.9-.91.39.4-.88-.93-.35.93-.35-.4-.88.91.39.36-.9.36.9.91-.39-.4.88.93.35-.93.35.4.88Zm-4.6 1.78c0 .15-.26.2-.31.3 0 .05.11.1.11.15-.09.08-.37.19-.42.26-.02.04 0 .05.05.09.07.06.19.09.27.09-.36.31-.57.35-.88.35-.03.21-.3.59-.57.5.05-.25-.06-.61-.32-.55-.04 0-.07.05-.05.1.16.3-.05.65-.52.6-.21.2-.83.2-1.14-.1-.04-.03-.05-.09 0-.1.21 0 .41-.06.62-.15 0-.05 0-.15-.05-.2-.31 0-.57.1-.83.25-.05 0-.04 0-.05-.05 0-.35.26-.75.52-.8.15-.25.2-.2.2-.25-.15-.15-.41-.2-.62-.15-.05 0-.16.05-.16-.05.26-.5.62-.55.99-.4.11-.1.26-.19.37-.15.2.05.2.35.36.45.21.05.47-.25.47-.45 0-.4-.73-.45-1.09-.4-.32.05-.68 0-.93-.2-.21-.15-.42-.3-.68-.5l-.04.05s-.16.35.04.55c.16.15.42.25.47.45 0 .15-.03.21-.14.35-.11.14-.37.2-.37.4 0 .25.05.35.26.6-.21.05-.52-.05-.73-.1-.05.05-.2.3-.26.44-.14.05-.24-.32-.29-.31l-.06.06c-.05.07-.1.22-.1.25-.11.1-.26-.3-.26-.4-.16.1-.21.3-.21.45-.16-.06-.21-.2-.31-.31-.11.2-.32.25-.57.2-.04 0 .05-.12.07-.2.01-.05 0-.05 0-.05h-.05c-.15.11-.27.12-.47.12-.16 0-.26-.07-.26-.12.11-.07.23-.15.26-.26 0 0 .03-.11 0-.17-.03-.05-.07-.03-.11-.01-.09.04-.3.34-.51.49-.15.1-.36.06-.52-.1-.26 0-.52 0-.78.2 0 0-.06.04-.05-.05.1-.5.26-.61.57-.7 0-.1 0-.2-.1-.25-.21-.15-.42-.1-.57 0-.16-.15.2-.8.67-.55.04.03.08-.04.09-.08v-.08c-.12-.24-.35-.23-.49-.14-.06-.35.46-.69.78-.5.05-.05.13-.1.26-.1.2 0 .25.24.38.32.13.09.24.09.38.16.12.06.12.07.17.11.13.16.19.27.57.31.21 0 .42 0 .63-.06.36-.1.36-.55.05-.55-.36-.05-.68.05-.99 0-.21-.05-.33-.1-.43-.2-.14-.13-.18-.31-.18-.65-.42.15-1.45.45-1.6.5-.11.15-.32.2-.47.25-.11.05.15.35.21.35 0 .1-.83.45-.73.5.05.05.1.05.1.05.05.1-.26.1-.31.15 0 .05.1.1.16.1-.16.15-.42.1-.58.25-.15.05-.31.1-.46.15-.06.05.05.15.05.2-.83.25-1.03-.15-1.24-.1-.08 0-.16.09-.22.15l-.05.12c-.03.35-.28.78-.62.73-.1-.05.08-.14.01-.35l-.04-.04s-.09-.03-.14 0c-.1.07-.1.47-.42.34-.05-.02-.08-.04-.15 0-.42.15-.62.3-1.09-.1.78-.2.93-.9-.21-.6.05-.45.31-.6.57-.6.36-.35-.26-.55-.47-.5.11-.3.52-.55.83-.4.21-.15.42-.15.52.15.11.3.42.35.73.35.52 0 .78-.4.72-.85-.05-.15.1-.45.26-.6 0-.06-.57-.06-.68-.5-.31.14-.98.2-1.14-.06.05 0 .52-.15.42-.35-.16-.05-.26 0-.42.05 0-.2.36-.4.31-.45-.05-.1-.26 0-.47 0 .16-.1.26-.25.26-.4-.05-.25-.31-.2-.52-.15-.05-.2.42-.45.32-.55-.06-.1-.21 0-.32-.05 0-.05.06-.05.06-.05.1-.1.2-.15.2-.31 0-.1-.15-.1-.31-.05.16-.35.42-.4.73-.6.05-.05.05-.2-.05-.2-.17 0-.3-.06-.4-.16-.09-.1-.07-.29-.07-.29.09 0 .19.04.28.01l.07-.05c.05-.06.05-.09 0-.13a.14.14 0 0 0-.09-.03c-.08 0-.18.03-.27.01l-.1-.04c-.08-.07-.03-.2-.13-.18h-.08c-.31-.14-.3-.61-.16-.8 0 0 .35.43.46.18v-.06c-.07-.27-.31-.41-.56-.46.31-.35.78-.15.98 0 .05.05.1 0 .2 0 0-.1.11-.1.06-.2-.11-.2-.21-.2-.37-.25.26-.25.83-.15 1.04.2.11.15.37.1.37.35 0 .2-.21 0-.21 1.06 0 .5.41 1.2.52 1.1.05-.1.1-.2.1-.35h-.05s-.06-.06-.03-.11c.09-.27.2-.5.34-.69-.1-.05-.15 0-.21 0 0-.25.26-.4.37-.6.03-.06-.21-.1-.31-.15.05-.05.4-.34.36-.4-.05-.1-.1-.1-.21-.2.11-.1.42-.15.47-.4 0-.05-.16-.15-.16-.19.06 0 .21.05.37.05.31-.1.57 0 .57 0 0-.05-.05-.15-.05-.25.26.05.41 0 .47-.25.05 0 .1.05.15.1.31.05.63.25.83.5.26-.2.62-.2.93-.2.16-.05.21 0 .26 0-.26.25.31.31.57.15.05.05.07.09.11.15.05.09.09.21.09.34 0 .13-.08.27-.2.41.05 0 .24.25.37.35.41-.45 1.14-.6 1.04-.9-.11-.3-.32-.3-.63-.3.05-.2.37-.2.73-.2v-.35c.57.1.83.65 1.14.75.35.05.7-.14.96-.33 0 0 .03-.02.08-.02-.05.6.62.15.83.19.05.56-.98.75-1.04 1-.11.25.05.31.1.4-.05.05-.42.05-.36.15.14.27.53.17.64.04.01-.02.04-.05.06-.11.08-.24-.14-.33-.14-.41l.02-.02c.06.01.19.08.28.01v-.04c0-.08-.04-.13-.04-.17.21.05.41.2.78.15.1-.1 0-.19.05-.3.2.05.35.24.54.29h.05c.13-.01.08-.2.03-.44.21-.05.42.55.68.65.09.03.21-.15.21-.25.06-.02.11.06.11.09.31 1.24.72.06.98.26 0 0-.04.04-.07.08-.07.12-.08.24-.09.36 0 .04 0 .1.01.12.13.59-.4.81-.55.9l-.03.06c.03 1.67-1.77 1.67-2.69 1.48.17.49.73.61.92.92.04.07.1.37.13.47.05.19.11.41.25.51.19.14.6-.06.82-.21.06-.04.1-.04.12-.04.36.03.41.3.45.35.42.05.68-.2 1.04-.31.16.1-.21.45-.05.4.06-.02.1-.05.16 0 .05.2-.16.4-.11.5.05.05.16.05.21.1 0 .1-.16.06-.26.25.1.1.31.05.42.05-.11.2-.47.45-.52.5 0 .05.2.05.2.05ZM14 31.69l.92.39.36-.9.36.9.91-.39-.4.88.93.35-.93.35.4.88-.91-.39-.36.9-.36-.9-.92.39.4-.88-.93-.35.93-.35-.4-.88Zm2.59-18.17-.91-.39-.36.9-.36-.9-.92.39.4-.88-.93-.35.93-.35-.4-.88.92.39.36-.9.36.9.91-.39-.4.88.93.35-.93.35.4.88ZM10.24 1.65l.1.02c.13.03.25.05.38.05.53.03.93-.15 1.35-.34.42-.19.85-.38 1.42-.39h.05c.59 0 1.18.21 1.77.61.59-.41 1.19-.61 1.77-.61h.05c.57.01 1.01.21 1.42.39.42.19.81.37 1.35.34.12 0 .25-.03.38-.05l.1-.02v.2h-.05c-.14.04-.28.06-.41.07h-.13c-.52 0-.9-.17-1.31-.35-.4-.18-.81-.37-1.34-.38h-.04c-.56 0-1.14.21-1.71.62l-.06.04-.06-.04c-.57-.41-1.15-.62-1.71-.62h-.04c-.53 0-.94.2-1.34.38-.44.2-.86.39-1.45.35-.14 0-.27-.03-.41-.06h-.05v-.22Zm3.26 3.83c-1.04.02-1.61.8-2.81.73-.16 0-.32-.03-.45-.06V2.08c.14.03.29.05.45.06 1.2.07 1.76-.71 2.81-.73.43 0 1.04.11 1.81.72.77-.61 1.39-.73 1.81-.72 1.04.02 1.61.8 2.81.73.16 0 .32-.03.45-.06v4.07c-.14.03-.29.05-.45.06-1.2.07-1.76-.71-2.81-.73-.42 0-1.04.11-1.8.72v.02h-.02V6.2c-.76-.61-1.38-.72-1.8-.72ZM8.59 3.61l.79-.44V2.05h.47v4.5h10.91V2.04h.47v1.13l.79.44-.79.44V5l.79.44-.79.44v1.13H9.37V5.89l-.79-.44.79-.44v-.94l-.79-.44Zm1.1 4.82v9.58H.76V8.43h8.93Zm-4.5 15.74-.91-.39-.36.9-.36-.9-.92.39.4-.88-.93-.35.93-.35-.4-.88.92.39.36-.9.36.9.91-.39-.4.88.93.35-.93.35.4.88ZM.76 30.78v-2.9h8.93v8.86l-7.35-3.51c-.97-.46-1.58-1.4-1.58-2.45Zm27.52 2.5-7.34 3.48v-8.88h8.93v2.94c0 1.04-.62 2-1.58 2.46Z"/>
  <path class="cls-1" d="M11.94 3.97c0 .22-.21.35-.42.35-.18 0-.33-.09-.41-.18V4.1l.1-.11h.04c.08.07.16.11.27.11s.18-.05.18-.14c0-.21-.57-.14-.57-.53 0-.2.18-.33.38-.33.15 0 .27.06.37.16v.04l-.1.11h-.04c-.08-.06-.14-.09-.23-.09-.1 0-.15.05-.15.12 0 .21.58.12.58.53M13.29 4.12v.04c-.11.1-.25.17-.42.17-.35 0-.62-.27-.62-.6s.28-.6.62-.6c.17 0 .31.06.42.17v.04l-.11.12h-.04a.406.406 0 0 0-.27-.1c-.21 0-.38.16-.38.38s.17.38.38.38c.11 0 .2-.04.27-.1h.04l.11.12ZM13.68 3.13h.18l.03.02v1.12l-.03.03h-.18l-.03-.03V3.15l.03-.02zM15.01 4.12v.15l-.03.03h-.64l-.02-.03V3.15l.02-.02h.64l.03.02v.16l-.03.02h-.42v.26h.39l.03.03v.15l-.03.03h-.39v.3h.42l.03.02zM16.39 3.15v1.12l-.03.03h-.21l-.03-.02-.46-.79v.78l-.03.03h-.19l-.02-.03V3.15l.02-.02h.22l.03.01.46.8v-.79l.03-.02h.18l.03.02zM17.54 3.15v.16l-.03.02h-.26v.94l-.02.03h-.19l-.02-.03v-.94h-.27l-.02-.02v-.16l.02-.02h.76l.03.02zM17.9 3.13h.19l.02.02v1.12l-.02.03h-.19l-.02-.03V3.15l.02-.02zM19.14 3.88l-.16-.46-.16.46h.32Zm.35.42h-.19l-.03-.02-.07-.2h-.45l-.07.2-.03.02h-.19l-.02-.03.42-1.12.03-.02h.17l.03.02.42 1.12-.02.03ZM2.28 39.36c.06-.04.09-.05.12-.03.06.03.05.08.02.15-.07.15-.12.2-.21.21-.1.02-.28-.02-.44-.1a.812.812 0 0 1-.4-1.11c.18-.38.64-.63 1.16-.38.15.07.26.16.31.24.06.09.04.14 0 .24v.02c-.06.1-.09.13-.15.11-.05-.02-.05-.05-.06-.1 0-.06 0-.14-.06-.23a.335.335 0 0 0-.16-.15c-.25-.12-.56.04-.72.38-.01.02-.02.05-.03.07-.16.39-.03.67.18.78.09.05.19.05.28.01.06-.02.12-.06.17-.09M3.16 40.26c-.46-.22-.6-.66-.38-1.1.2-.42.67-.62 1.11-.41.46.22.59.67.38 1.11-.21.42-.68.61-1.11.4m-.05-1.02c-.18.36-.14.75.14.88.26.13.54-.05.69-.36.17-.36.15-.75-.14-.89-.25-.12-.53.02-.69.36M5.46 41.29s-.05.03-.08.01l-.17-.08c-.07-.03-.11-.07-.11-.15 0-.07 0-.22.01-.39 0-.19-.02-.32-.12-.4-.02-.02-.05-.03-.09-.05-.02 0-.04-.02-.05-.02-.02 0-.03 0-.04.02l-.13.26c-.07.14-.08.19-.08.23 0 .04.01.07.04.11.02.03.03.05.02.07-.02.03-.05.03-.09.01l-.41-.2s-.06-.05-.05-.08c.01-.03.03-.03.07-.03.04 0 .07-.01.1-.04.03-.02.06-.06.13-.21l.37-.78c.05-.11.08-.16.03-.22-.02-.04-.05-.06-.04-.09.01-.02.04-.03.08-.01 0 0 .26.12.34.16.07.03.16.07.22.1.15.07.3.16.37.3.05.11.04.22 0 .31-.03.05-.06.1-.1.13a.41.41 0 0 1-.4.05h-.02s0 .01.01.02c.15.1.16.23.15.5-.01.27 0 .32.02.37.02.03.05.06.03.09m-.01-1.27c.1-.22-.04-.32-.19-.39 0 0-.08-.04-.11-.05-.03-.01-.04 0-.05.02l-.22.45s0 .03.02.04c.01 0 .11.05.11.05.15.07.34.09.44-.12M7.33 41.32c-.18.37-.6.63-1.23.33-.15-.07-.48-.23-.48-.23-.04-.02-.06-.05-.05-.08.01-.03.04-.03.07-.03.04 0 .08-.02.11-.04s.06-.06.12-.2l.38-.79c.05-.1.07-.15.03-.21-.02-.04-.05-.06-.04-.09.01-.02.04-.03.08-.01 0 0 .21.1.34.16.36.17.52.3.62.46.15.22.14.5.03.73m-.29-.13c.08-.17.16-.44 0-.66-.07-.1-.18-.17-.36-.25-.04-.02-.06-.01-.07.02l-.43.89v.03c-.07.13-.1.17-.08.21.01.03.05.05.1.08.17.08.35.11.5.05.15-.06.26-.2.34-.36M8.47 42.34s-.02.04-.04.06c-.09.11-.15.24-.24.26-.02 0-.05 0-.08-.02-.06-.03-.15-.09-.36-.19l-.56-.27s-.07-.05-.05-.08c.01-.03.05-.03.07-.03.05 0 .07-.01.11-.04.03-.02.06-.06.13-.2l.38-.79c.05-.09.07-.15.03-.21-.02-.03-.05-.06-.04-.09.01-.02.04-.03.08-.01l.54.26c.23.11.38.16.43.19.05.03.06.06.04.1-.01.03-.05.1-.07.14-.02.04-.05.12-.07.16-.02.05-.06.05-.1.03-.05-.02-.05-.04-.05-.12 0-.04.02-.13-.04-.21-.05-.07-.14-.12-.27-.19l-.09-.04s-.06 0-.07.03l-.19.39c-.02.05.01.07.06.1h.01s.1.05.16.07c.09.04.16.06.2.08.04.02.06.04.05.08 0 .01-.02.03-.02.04-.02.03-.03.05-.06.06-.02 0-.05 0-.09-.03-.09-.04-.14-.08-.26-.14-.04-.02-.08-.04-.11-.05-.02 0-.04 0-.04.01l-.16.33c-.05.1-.07.16-.05.2.01.02.06.05.11.07.07.03.14.06.18.07.15.04.24 0 .37-.08.05-.03.09-.04.12-.03 0 0 .02.01.03.02.02.02.02.05 0 .08M23.87 41.85s0 .06-.05.08l-.41.19s-.08.02-.09-.01c-.01-.03 0-.05.02-.07.03-.04.04-.07.03-.11 0-.04 0-.08-.1-.29 0 0-.35-.76-.35-.77h-.01v.01l.03 1.13s0 .05-.03.06l-.07.03s-.04.01-.07-.01l-.84-.76h-.01v.02c.03.07.29.64.39.84.09.19.17.2.25.2.04 0 .09 0 .1.03.01.03 0 .06-.05.08l-.35.16c-.05.02-.09.02-.1 0-.02-.04.03-.07.04-.13.02-.07 0-.17-.1-.4-.08-.18-.33-.73-.35-.78 0-.02-.02-.04-.03-.05-.01-.01-.03-.01-.06-.01-.04 0-.09 0-.11-.03-.01-.03 0-.06.05-.08l.34-.16s.07-.02.1 0l.72.64h.01v-.01l-.02-.96s.02-.06.04-.07l.36-.16s.07 0 .08.01c.02.04-.01.06-.04.1-.04.06-.02.11.04.24l.35.77c.07.14.1.18.12.2.02.02.06.04.1.04.03 0 .06 0 .07.03M25.12 40.89s.01.04.02.07c.03.14.09.27.04.35-.01.02-.03.04-.06.05-.06.03-.17.06-.38.15l-.57.26s-.08.02-.09-.01c-.01-.03 0-.05.02-.07.03-.04.04-.07.04-.11 0-.04 0-.08-.07-.23l-.37-.8c-.04-.1-.07-.15-.14-.16-.04 0-.08 0-.09-.03-.01-.02 0-.05.04-.07l.54-.25c.23-.11.37-.18.42-.21.05-.02.08 0 .1.03.02.03.05.1.07.14.02.04.06.11.08.15.02.05 0 .08-.04.1-.05.02-.07.01-.13-.04a.305.305 0 0 0-.19-.1.87.87 0 0 0-.32.09l-.09.04s-.04.04-.03.07l.18.39c.02.05.06.04.12.01h.01s.1-.05.15-.08c.09-.05.15-.08.19-.1.04-.02.07-.02.09.01 0 .01 0 .03.01.04 0 .03.02.05 0 .09 0 .02-.04.03-.08.05-.09.04-.15.06-.28.11-.04.02-.08.04-.11.05-.02.01-.02.03-.02.04l.15.33c.05.1.07.16.12.16.03 0 .08-.02.13-.04.07-.03.13-.07.17-.09.13-.09.15-.18.18-.34 0-.06.02-.09.06-.11h.04c.03 0 .05.01.07.04M26.2 39.05c.05-.02.08-.02.09.01.02.04-.02.07-.04.09-.04.05-.07.1 0 .29.05.14.47 1.05.5 1.12 0 .02 0 .03-.02.04l-.14.06s-.05.01-.07 0l-1.24-.73h-.01v.01c.08.17.29.63.34.72.09.17.17.18.24.18.04 0 .09 0 .1.03.01.03 0 .06-.05.08l-.4.18c-.05.03-.08.02-.1-.01-.02-.04.02-.07.04-.09.04-.05.08-.11 0-.3-.03-.08-.39-.88-.41-.92 0-.02-.02-.02-.03-.03-.03-.01-.05-.01-.09-.02-.06 0-.12.02-.14-.03-.01-.03.01-.06.05-.08l.28-.13s.08-.02.11 0l1.2.7h.01v-.01c-.1-.23-.27-.59-.34-.72-.09-.17-.14-.18-.21-.19-.04 0-.09 0-.11-.03-.01-.03 0-.06.05-.08l.36-.17ZM27.73 38.86s-.06 0-.11-.04a.333.333 0 0 0-.19-.11c-.07 0-.13.01-.2.05-.04.02-.04.04-.02.06l.41.9c.07.14.1.19.13.21.04.03.08.04.1.04.03 0 .06 0 .07.03.01.03-.01.06-.05.08l-.42.19s-.07.02-.09-.01c-.01-.03 0-.05.02-.07a.21.21 0 0 0 .04-.11c0-.04-.01-.09-.08-.23l-.41-.9c-.01-.02-.02-.04-.06-.02-.07.03-.13.07-.17.12-.05.08-.04.17-.05.22 0 .06 0 .09-.04.11-.05.02-.08.02-.11-.04-.01-.03-.03-.07-.05-.12-.03-.07-.06-.14-.08-.18-.02-.06 0-.08.06-.11.07-.03.22-.08.4-.16l.3-.14c.18-.08.31-.16.38-.19.05-.02.09-.03.12.03.02.04.05.11.09.18.02.04.04.08.06.11.02.05 0 .08-.04.11M29.4 38.93s.01.04.02.07c.03.14.09.27.05.35-.01.02-.03.04-.06.05-.06.03-.17.06-.38.15l-.57.26s-.08.02-.09-.01c-.01-.03 0-.05.02-.07.03-.04.04-.07.04-.11 0-.04 0-.08-.07-.23l-.37-.8c-.04-.1-.07-.15-.14-.16-.04 0-.08 0-.09-.03-.01-.02 0-.05.04-.07l.54-.25c.23-.1.37-.18.42-.21.05-.02.08 0 .1.03.02.03.05.1.07.14.02.04.06.11.08.15.02.05 0 .08-.04.1-.05.02-.07.01-.13-.04-.03-.03-.09-.09-.18-.1a.87.87 0 0 0-.32.09l-.09.04s-.04.04-.03.07l.18.39c.02.05.06.04.12.01h.01s.1-.06.15-.08c.09-.05.15-.08.19-.1.04-.02.07-.02.09.01 0 .01 0 .03.01.04 0 .03.03.05 0 .09 0 .02-.04.03-.08.05-.09.04-.15.06-.28.11-.04.02-.08.04-.11.05-.02.01-.02.03-.02.04l.15.33c.05.1.07.16.12.16.03 0 .08-.02.13-.04.07-.03.13-.07.17-.09.13-.09.15-.18.18-.34 0-.06.02-.09.06-.11h.04c.03 0 .05.01.07.04M11.9 46.39s-.04.04-.09.04l-.44-.08s-.07-.03-.07-.06.03-.04.06-.05a.16.16 0 0 0 .09-.07c.02-.03.04-.07.08-.29 0 0 .15-.83.16-.83v-.01h-.01l-.63.94s-.03.04-.06.03h-.08s-.04-.03-.05-.06l-.25-1.1h-.01c-.01.08-.13.69-.16.92-.03.21.02.26.09.31.03.03.07.05.07.08s-.04.05-.09.04l-.38-.07c-.06-.01-.08-.03-.08-.06 0-.05.06-.04.11-.08.06-.05.1-.14.15-.38.04-.19.15-.79.16-.84v-.06c0-.02-.02-.03-.05-.05-.04-.02-.08-.04-.07-.09 0-.03.04-.04.09-.04l.37.07c.05 0 .07.02.08.06l.22.94v.01h.01l.54-.8s.05-.04.08-.03l.39.07s.06.03.06.06c0 .04-.04.04-.09.05-.07.03-.08.09-.1.22l-.16.83c-.03.15-.02.2-.02.24 0 .03.03.07.06.09.02.02.04.04.04.07M13.74 46.57s-.02.05-.08.04l-.44-.04s-.07-.02-.06-.05c0-.02.02-.03.04-.04.02 0 .04-.02.05-.03.02-.01.02-.03.03-.05 0-.03 0-.06-.02-.11l-.05-.2s-.02-.04-.05-.04l-.54-.05s-.03 0-.04.03c-.07.13-.1.21-.1.26v.05c.02.04.05.06.06.07.02.02.03.03.03.05 0 .03-.04.04-.08.04l-.35-.03s-.08-.02-.07-.06c0-.02.02-.03.04-.05.04-.02.07-.04.13-.11.04-.05.08-.11.13-.19l.64-1.13s.02-.03.05-.03h.11s.04.02.04.04c.02.08.34 1.23.37 1.33.03.11.05.15.08.19.02.02.04.04.06.05.02.01.03.03.03.05m-1.07-.76s-.02.03-.02.04c0 0 0 .01.02.02l.43.04h.02v-.02l-.16-.58-.28.51ZM15.51 45.05c.06 0 .08.02.08.05 0 .04-.05.05-.08.07-.06.03-.1.06-.12.26-.01.15-.05 1.15-.05 1.23 0 .02-.01.03-.04.03h-.15s-.05-.02-.06-.04l-.79-1.2h-.01v.01c0 .19-.02.7-.02.8 0 .19.07.24.14.27.04.02.08.03.08.07 0 .03-.03.05-.08.05h-.44c-.06-.01-.08-.04-.08-.07 0-.04.05-.05.08-.07.06-.03.12-.07.14-.26 0-.09.04-.96.04-1.01 0-.02 0-.03-.01-.04a.18.18 0 0 0-.07-.05c-.06-.03-.11-.04-.11-.09 0-.03.04-.05.08-.05h.31c.05 0 .08.03.1.05l.76 1.16h.01v-.01c0-.25.02-.65.01-.79 0-.19-.05-.23-.1-.26-.04-.02-.09-.03-.08-.08 0-.03.03-.05.09-.05h.4ZM17.29 45.02s-.05.06-.07.07c-.05.03-.1.07-.1.27 0 .08.02.49.02.66 0 .1 0 .18-.03.26-.07.24-.28.37-.58.38-.26.01-.52-.05-.62-.3a.795.795 0 0 1-.05-.29l-.03-.7c0-.12 0-.17-.07-.21-.04-.02-.08-.03-.08-.06s.02-.05.07-.05l.44-.02s.07.02.07.05c0 .04-.04.05-.07.07-.06.04-.06.09-.05.22l.03.65c0 .1.02.17.04.24.07.15.2.21.38.2.25-.01.39-.16.39-.45 0-.08 0-.19-.01-.3 0-.13-.01-.26-.02-.33-.02-.19-.07-.23-.12-.25-.04-.02-.09-.03-.09-.07 0-.03.03-.05.08-.06l.4-.02c.06 0 .08.02.08.05M19.31 45.96v.07c-.02.15 0 .28-.06.35-.02.02-.04.02-.07.03-.06 0-.18 0-.4.03l-.62.08s-.08 0-.09-.04c0-.03.02-.05.04-.07.04-.03.05-.05.07-.09 0-.03.02-.08 0-.24l-.11-.87c-.01-.1-.02-.16-.09-.19-.04-.02-.08-.02-.08-.06 0-.02.02-.05.06-.06l.59-.08c.25-.03.4-.07.46-.08.06 0 .08.02.09.06 0 .04.02.11.02.16 0 .04.02.12.03.17 0 .05-.02.08-.06.08-.05 0-.07 0-.11-.07-.02-.04-.06-.12-.15-.15-.08-.03-.18-.02-.33 0h-.1s-.05.04-.05.07l.06.43c0 .06.05.05.11.05h.01c.05 0 .11-.02.17-.03.1-.02.17-.04.21-.04.04 0 .08 0 .08.04v.05c0 .03 0 .06-.02.08-.01.01-.05.02-.09.03-.1.01-.16 0-.3.03-.04 0-.08.01-.12.02-.02 0-.03.02-.03.04l.05.36c.02.11.02.17.07.19h.13c.07 0 .15-.03.19-.04.15-.05.2-.12.27-.27.03-.06.05-.08.09-.09h.04c.03 0 .05.03.05.06M20.54 44.94s-.06 0-.1-.06c-.04-.05-.08-.12-.17-.15a.373.373 0 0 0-.21 0c-.04 0-.04.03-.04.06l.2.97c.03.16.05.2.07.23.03.04.07.05.09.06.03 0 .05.02.06.05 0 .03-.02.06-.06.06l-.45.09s-.08 0-.08-.03.01-.05.04-.07c.03-.03.06-.06.06-.09 0-.04 0-.09-.02-.24l-.2-.97c0-.02-.01-.05-.05-.04-.08.02-.14.04-.19.08-.07.07-.08.15-.09.2-.01.06-.02.09-.06.1-.05 0-.09 0-.1-.06 0-.03-.01-.08-.02-.12-.01-.07-.03-.15-.04-.19 0-.06.03-.08.08-.09.08-.02.23-.03.43-.07l.32-.06c.19-.04.34-.09.42-.1.05-.01.09 0 .11.05.01.04.03.12.04.19 0 .05.02.09.03.12.01.06 0 .08-.06.09M21.16 44.86v.68l.24-.1s.07-.03.1-.05v-.53h-.34Z"/>
  <path class="cls-1" d="M30.35 34.98c-.22-.16-.47-.17-.76-.03l-.24.12c-.52.25-1.05.51-1.58.76-.45.21-.9.42-1.35.62l-7.47 3.42c-.09.04-.18.08-.27.13l-.23.11v2.98l-.18.03c-.21.03-.42.07-.62.1-.19.03-.37.05-.56.07-.17.02-.33.03-.49.04-.14 0-.28.02-.42.03-.26.01-.54.01-.8.01H14.56c-.13 0-.27-.01-.4-.02-.16 0-.32-.02-.47-.04l-.54-.06-.61-.09c-.13-.02-.25-.04-.38-.07v-2.97l-.23-.11c-.09-.04-.18-.08-.27-.13l-7.47-3.43c-.45-.21-.9-.41-1.35-.62-.53-.24-1.06-.51-1.58-.76l-.24-.12c-.29-.14-.54-.13-.76.03-.26.19-.26.55-.26.81v4.9c0 .38.21.72.54.89.36.19.73.34 1.1.5l.57.24 5.35 2.38a187.462 187.462 0 0 0 1.56.69v1.68c0 .15.1.29.24.33.15.05.3.1.45.14.2.06.41.12.62.18l.59.15c.19.05.37.09.56.13.18.04.35.07.53.1.17.03.33.06.5.08.15.02.31.05.46.07.14.02.28.04.42.05.13.01.26.03.38.04.11 0 .23.02.34.02.1 0 .2.01.3.02.23 0 .46.01.7.01h.82c.09 0 .19 0 .29-.01.11 0 .22-.01.33-.02.12 0 .25-.02.37-.03.14-.01.28-.03.41-.05l.45-.06c.16-.02.32-.05.49-.08.17-.03.35-.06.52-.1l.55-.12c.19-.04.39-.09.58-.14.2-.05.4-.11.61-.17.21-.06.42-.13.64-.2.14-.05.24-.18.24-.33V45.4c.22-.1.47-.21.72-.32.29-.13.58-.26.83-.37l5.35-2.38.57-.24c.37-.15.74-.31 1.1-.5.33-.17.54-.52.54-.89v-4.91c0-.26 0-.62-.26-.81m-11.57 5.43c.36.32.72.64 1.07.96l.57.51.63.56-.58.18c-.26.07-.52.15-.78.21-.25.06-.49.12-.74.17-.05.01-.11.02-.17.03v-2.61Zm-6.97 0v2.6c-.22-.05-.45-.09-.68-.15-.25-.06-.51-.13-.77-.2l-.81-.24.62-.55.57-.51c.35-.31.71-.63 1.07-.96m-2.59 1.87c-.07.07-.12.16-.12.26v2.49c-.19-.08-.39-.17-.59-.26-.29-.13-.58-.26-.83-.37l-5.35-2.38c-.19-.09-.39-.17-.58-.25-.36-.15-.73-.3-1.07-.48a.675.675 0 0 1-.36-.6V35.78c0-.21 0-.45.12-.54.05-.04.1-.06.18-.06.06 0 .14.02.23.06l.24.12c.52.25 1.05.52 1.58.76.45.21.9.42 1.36.62l7.47 3.43.04.02c-.34.31-.69.62-1.03.92l-.57.51-.73.65Zm11.93 4.8v.01c-.21.07-.42.13-.63.19-.2.06-.4.11-.6.17-.19.05-.38.1-.57.14l-.54.12c-.17.03-.34.07-.51.09-.16.03-.32.05-.48.08l-.44.06c-.13.02-.27.03-.4.04l-.36.03c-.11 0-.22.02-.32.02-.09 0-.19 0-.28.01h-1.49c-.1 0-.2 0-.29-.01-.11 0-.22-.02-.34-.02-.13-.01-.25-.02-.38-.04-.14-.02-.28-.03-.41-.05l-.45-.06c-.16-.03-.33-.05-.49-.08-.17-.03-.35-.07-.52-.1l-.55-.12-.58-.15c-.2-.05-.41-.11-.61-.17-.15-.05-.3-.09-.45-.14v-4.34c.28.09.56.17.83.25.26.07.53.14.78.2.24.06.49.11.73.16.23.05.45.09.68.12l.62.09c.19.02.37.05.55.06.16.02.33.03.48.04.14 0 .27.02.41.02h.98c.22 0 .45 0 .67-.01.14 0 .28-.02.43-.03.16-.01.33-.03.5-.04.19-.02.38-.04.57-.07.21-.03.42-.06.63-.1a20.215 20.215 0 0 0 1.44-.3c.26-.06.53-.14.8-.21.2-.06.4-.12.59-.18v4.31Zm9.12-11.28v4.9c0 .25-.14.48-.36.59-.34.18-.71.34-1.07.48-.19.08-.39.16-.58.25l-5.36 2.38c-.25.11-.54.24-.83.37l-.58.26v-2.49c0-.1-.04-.2-.12-.26l-.73-.65-.57-.51c-.34-.3-.69-.61-1.03-.92.01 0 .02-.01.04-.02l7.47-3.43c.45-.21.9-.41 1.36-.62.53-.25 1.07-.51 1.59-.76l.24-.12c.22-.11.33-.06.41 0 .13.09.12.33.12.54"/>
</svg>