<svg 
 xmlns="http://www.w3.org/2000/svg" 
 viewBox="0 0 144 144"
 fill="currentColor">
  <path d="m75.88 4.47-.55 5.45c-.15 1.53.65 3.03 2.84 3.25 2.24.23 3.43-1.08 3.6-2.75l.54-5.3-1.1-.11-.52 5.16c-.18 1.77-1.36 2.13-2.37 2.03-.99-.1-2.02-.7-1.84-2.47L77 4.59l-1.1-.11Zm-7.79.03-6.01.54.74 8.25 6.09-.55-.09-.99-4.97.45-.25-2.76 4.52-.41-.09-.99-4.52.41-.22-2.53 4.89-.44-.09-.99Zm-8.89 1-6.56 1.41.21.97 2.74-.59 1.52 7.12 1.09-.24-1.52-7.12 2.74-.59-.21-.97Zm26.72.16-1.81 8 1.05.24 1.47-6.47h.02l2.6 7.39 1.21.28 1.81-8-1.05-.24-1.47 6.46h-.02L87.2 5.94l-1.28-.29Zm-37.3 2.61-1.2.42-.22 8.86 1.09-.38.02-2.57 3.14-1.09 1.57 2.01 1.16-.4-5.56-6.85Zm47.15.1-2.8 7.75 1.05.38 2.81-7.76-1.05-.38ZM48.39 9.66l2.36 3.05-2.44.84.06-3.89h.02Zm51.37.15-1.03 8.7 1.05.53 6.39-5.99-1.11-.56-5.24 5.21h-.02l1.07-7.33-1.1-.56Zm-56.33.48-6.03 2.95.44.89 2.51-1.23 3.19 6.54 1-.49-3.2-6.53 2.52-1.23-.44-.89Zm65.3 4.24-4.62 6.85 5.05 3.41.55-.82-4.13-2.79 1.54-2.29 3.75 2.53.55-.82-3.75-2.53 1.41-2.1 4.06 2.74.55-.82-4.99-3.36ZM34.16 15.8c-.59 0-1.32.22-2.19.86-1.62 1.18-1.55 2.7-.79 3.74.85 1.16 2.06.75 2.57.54l1.6-.68c1.29-.54 1.78-.55 2.29.15.7.96-.28 1.92-.93 2.4-.86.62-2.1.99-2.98-.22l-.84.62c.45.62.97 1.1 1.91 1.2.49.05 1.25.07 2.49-.83 1.14-.83 2.3-2.34 1.14-3.92-.77-1.06-1.8-1.11-2.82-.68l-2.22.95c-.46.19-.99.3-1.41-.27-.74-1.01.1-1.87.67-2.28.75-.55 1.85-.85 2.64.15l.85-.61c-.36-.44-.98-1.09-1.97-1.1Zm37.97 2.74c-29.29.03-53.11 23.83-53.11 53.06v.09c0 14.17 5.52 27.49 15.56 37.52 10.04 10.04 23.38 15.56 37.55 15.54 14.13.02 27.45-5.49 37.48-15.51 10.06-10.05 15.61-23.39 15.62-37.59-.02-29.25-23.85-53.08-53.11-53.11Zm0 .51c28.98.03 52.57 23.63 52.6 52.6-.01 14.06-5.51 27.28-15.48 37.23-9.94 9.92-23.13 15.38-37.12 15.36-14.04.01-27.24-5.45-37.19-15.39-9.95-9.95-15.42-23.16-15.41-37.2-.02-28.97 23.57-52.57 52.6-52.6Zm44.48 1.4-5.69 5.94.8.77 2.44-2.55 1.95 1.86c.96.92.51 1.58.04 2.07-.21.22-1.05 1.15-1.29 1.62l.98.94.13-.13c-.11-.38-.04-.54.27-.88l.98-1.12c.76-.86.57-1.33.36-1.8.59.14 1.35.25 2.19-.63 1.21-1.26.56-2.53-.42-3.47l-2.75-2.63Zm-44.48.02c-13.69 0-26.56 5.35-36.24 15.05-9.63 9.65-14.94 22.46-14.94 36.06v.14c0 28.19 22.94 51.15 51.18 51.2 28.21-.05 51.17-23.04 51.18-51.27 0-28.2-22.97-51.16-51.18-51.18Zm0 .51c27.93.01 50.66 22.75 50.67 50.67 0 27.94-22.74 50.71-50.67 50.76-27.97-.05-50.7-22.81-50.66-50.76-.02-13.49 5.23-26.2 14.79-35.77 9.58-9.6 22.32-14.89 35.88-14.9Zm44.62.93 2 1.92c.4.38 1 1.1.12 2.01-.84.88-1.6.43-2.19-.13l-1.86-1.78 1.94-2.02Zm-44.62.49c-27.17 0-49.3 22.09-49.34 49.24.04 27.17 22.17 49.31 49.34 49.34 27.16-.03 49.25-22.17 49.25-49.34 0-13.13-5.12-25.48-14.43-34.8-9.32-9.32-21.68-14.45-34.82-14.45Zm0 .51c13 0 25.24 5.08 34.45 14.3 9.21 9.22 14.28 21.44 14.28 34.44 0 26.89-21.85 48.8-48.73 48.83-26.89-.03-48.79-21.94-48.83-48.83.04-26.87 21.94-48.73 48.83-48.73Zm0 1.42c-26.12-.02-47.38 21.21-47.41 47.32.02 26.12 21.29 47.39 47.41 47.41 12.62 0 24.5-4.95 33.45-13.91 8.95-8.97 13.88-20.86 13.87-33.5.01-12.61-4.91-24.48-13.86-33.44-8.96-8.96-20.84-13.89-33.45-13.88Zm0 .51c12.48 0 24.23 4.87 33.09 13.73 8.85 8.86 13.72 20.6 13.71 33.08.01 12.5-4.86 24.27-13.72 33.13-8.85 8.87-20.6 13.75-33.09 13.76-25.84-.02-46.87-21.05-46.9-46.9.02-25.82 21.06-46.82 46.9-46.81Zm-49.52.47-.83.95 4.14 7.77.76-.86-1.23-2.23 2.18-2.48 2.34.97.8-.91-8.16-3.2Zm49.52.95c-12.13-.01-23.55 4.7-32.14 13.29-8.59 8.58-13.33 19.98-13.33 32.1 0 25.08 20.41 45.48 45.48 45.48 12.12 0 23.52-4.73 32.1-13.33 8.59-8.6 13.3-20.02 13.29-32.15.02-12.11-4.7-23.5-13.28-32.09-8.59-8.59-19.99-13.31-32.11-13.3Zm-49.04.36 3.53 1.48-1.69 1.92-1.85-3.39v-.02h.01Zm49.04.16c11.98-.01 23.26 4.65 31.75 13.14 8.49 8.49 13.15 19.76 13.13 31.73.02 12-4.65 23.29-13.13 31.79s-19.76 13.18-31.74 13.18c-24.79 0-44.96-20.17-44.97-44.97 0-11.98 4.68-23.25 13.18-31.74 8.5-8.49 19.79-13.15 31.78-13.14Zm51.11 1.93c-.48.04-.94.22-1.33.51-1.16.85-.75 2.06-.54 2.57l.68 1.6c.54 1.29.55 1.78-.15 2.29-.96.7-1.93-.28-2.4-.93-.62-.86-.99-2.1.22-2.98l-.62-.85c-.62.45-1.1.97-1.2 1.91-.05.49-.07 1.25.83 2.49.83 1.14 2.34 2.3 3.92 1.14 1.06-.77 1.11-1.8.68-2.82l-.95-2.23c-.19-.46-.3-.99.27-1.41 1.01-.74 1.87.11 2.28.67.55.75.85 1.85-.15 2.65l.62.85c.71-.57 1.93-1.82.23-4.16-.74-1.01-1.61-1.37-2.41-1.3ZM18.38 30.09l-.65 1.04 4.89 4.86v.02l-6.7-1.99-.65 1.04 4.72 5.13v.02l-6.53-2.25-.64 1.03 8.15 2.55.62-1-4.8-5.24v-.02l6.82 2.02.62-1-5.86-6.22Zm110.84 5.45-7.1 4.29.58.96 7.1-4.29-.58-.96Zm2.05 3.55-.9.4 1.15 2.54-6.61 2.98.46 1.01 6.61-2.98 1.14 2.54.9-.41-2.75-6.09ZM13.29 42.74c-1.3.07-2.64.71-3.35 2.5-1.14 2.86.9 4.69 2.55 5.35 1.66.66 4.39.73 5.53-2.13 1.14-2.86-.89-4.69-2.55-5.35-.62-.25-1.39-.41-2.18-.37Zm.43 1.12c.43.03.87.13 1.32.31 1.81.72 2.72 2.24 2.06 3.91-.66 1.67-2.38 2.15-4.18 1.43-1.81-.72-2.72-2.24-2.06-3.91.5-1.25 1.59-1.83 2.86-1.74Zm121.16 3.21-3.83 4.42-3.19.96.32 1.07 3.19-.96 5.64 1.56-.38-1.26-4.49-1.12 3.12-3.42-.38-1.25ZM7.74 51.91l-.31 1.07 7.92 2.31.31-1.07-7.92-2.31Zm49.31 6.76c-.04.12-.08.21-.28.21-.25 0-.64-.2-1.32-.2-1.61 0-1.87.83-1.87 1.21 0 .28 0 .81 1.45 1.31l.57.2c.55.19.95.34.95.75 0 .08-.04.69-1.06.69-1.08 0-1.57-.69-1.74-1.31h-.25v1.52h.25c.03-.1.08-.21.25-.21.26 0 .65.21 1.45.21 1.56 0 2.1-.74 2.1-1.28 0-.67-.64-1.03-.93-1.13l-1.25-.45c-.71-.26-.87-.39-.87-.72 0-.4.47-.58.91-.58 1 0 1.51.71 1.66 1.14h.24V58.7h-.25Zm4.28.01c-1.78 0-3 .96-3 2.2 0 1.15 1.07 2.15 3.04 2.15 1.09 0 1.75-.39 2.36-.9l-.25-.15c-.7.57-1.34.75-2 .75-.26 0-.93-.09-1.29-.54-.31-.39-.36-.98-.36-1.35 0-1.04.33-1.97 1.57-1.97.97 0 1.68.72 1.98 1.25h.21v-1.44h-.23c-.09.15-.16.28-.39.28s-.87-.3-1.64-.3Zm21.11 0c-1.78 0-3 .96-3 2.2 0 1.15 1.07 2.15 3.04 2.15 1.09 0 1.75-.39 2.36-.9l-.25-.15c-.7.57-1.34.75-2 .75-.26 0-.93-.09-1.29-.54-.31-.39-.36-.98-.36-1.35 0-1.04.33-1.97 1.57-1.97.97 0 1.68.72 1.97 1.25h.21v-1.44h-.23c-.08.15-.16.28-.39.28s-.87-.3-1.64-.3Zm-18.32.09v.15c.39.02.79.03.79.44v2.97c0 .38-.33.41-.79.44v.15h2.97v-.15c-.47-.03-.8-.04-.8-.44v-2.97c0-.42.41-.42.8-.44v-.15h-2.97Zm3.27 0v.15c.39.02.75.03.75.44v2.97c0 .38-.26.4-.75.44v.15h4.96l.34-1.28h-.24c-.53.93-1.4 1.09-2.23 1.09-.55 0-.71-.07-.71-.34V60.9c.84 0 1.27.18 1.37.95h.22v-2.08h-.22c-.13.76-.56.92-1.37.91v-1.42c0-.26.15-.29.62-.29 1.14 0 1.74.15 1.94 1.02h.21v-1.23h-4.89Zm5.73 0v.15c.11 0 .25.02.72.44v2.91c0 .41-.24.45-.75.49v.15h1.92v-.15c-.63-.05-.8-.17-.8-.61V59.7h.02L78 63.03h.24v-3.61c0-.29.05-.44.66-.49v-.15h-1.82v.15c.69.04.79.24.79.61v1.86h-.02l-2.94-2.62h-1.79Zm12.16 0v.15c.39.02.75.03.75.44v2.97c0 .38-.26.4-.75.44v.15h4.96l.34-1.28h-.24c-.53.93-1.4 1.09-2.23 1.09-.55 0-.71-.07-.71-.34V60.9c.84 0 1.27.18 1.38.95H89v-2.08h-.22c-.13.76-.56.92-1.38.91v-1.42c0-.26.15-.29.62-.29 1.14 0 1.75.15 1.94 1.02h.21v-1.23h-4.89Zm49.63 2.12-.83 2.3h-2.66l2.11 1.56-.92 2.67 2.2-1.75 2.3 1.75-.92-2.67 2.11-1.56h-2.66l-.74-2.3Zm-125.83.1-.83 2.3H5.68l2.02 1.56-.92 2.66 2.3-1.75 2.3 1.75-.92-2.66 2.11-1.56H9.9l-.82-2.3Zm62.28 6.05c-.41 0-.7.25-.7.53s.29.52.7.52c.39 0 .7-.22.7-.52s-.31-.53-.7-.53Zm4.41.11v.16c.35.05.48.08.48.39v3.47c0 .33-.15.36-.48.41v.16h2.18v-.16c-.42-.03-.44-.23-.44-.39v-1.81c0-.06.39-.39.75-.39.49 0 .5.37.5.56v1.64c0 .25-.13.37-.42.39v.16h2.12v-.16c-.44 0-.44-.29-.44-.41v-1.69c0-.75-.72-.96-1.21-.96-.47 0-.86.15-1.29.53v-1.91h-1.73Zm-1.47.31c-.61.66-1.02.96-1.5 1.26v.18h.47v2.2c0 .14.04.71 1.02.71.81 0 1.14-.47 1.33-.76l-.23-.07c-.1.14-.25.35-.51.35-.36 0-.35-.28-.35-.39v-2.05h.85v-.3h-.85v-1.15h-.22Zm-10.5 1.15v.16c.23.03.28.08.51.52l1.34 2.54h.22l1.1-2.06h.05l.9 2.06h.21l1.4-2.73c.15-.3.28-.31.45-.34v-.16h-1.22v.16c.25.02.43.03.43.25 0 .15-.46.96-.7 1.47h-.02c-.16-.53-.54-1.41-.54-1.56s.2-.16.43-.17v-.16h-2.11v.16c.22.02.32.02.4.16.05.08.1.22.19.45l-.61 1.16c-.45-.91-.76-1.43-.76-1.57 0-.18.22-.19.34-.2v-.16h-2Zm6.45 0v.16c.34.05.48.09.48.4v2c0 .33-.15.35-.48.41v.16h2.16v-.16c-.35-.03-.42-.18-.42-.39v-2.58h-1.73Zm61.2 4.8-.13 1.3 3.69 2.74-4.16 1.95-.13 1.29 5.19-2.59 3.29.33.11-1.1-3.29-.33-4.57-3.58Zm-122.13.27c-.24 0-.48 0-.7.02-1.76.18-4.21 1.37-3.9 4.42.31 3.05 2.94 3.72 4.7 3.55 1.76-.18 4.21-1.37 3.9-4.41-.27-2.67-2.32-3.52-4.01-3.57Zm.11 1.14c1.58.07 2.75.98 2.91 2.53.18 1.77-1.11 2.99-3.04 3.18-1.92.19-3.43-.73-3.61-2.51-.18-1.77 1.11-2.98 3.04-3.18.24-.02.47-.03.7-.02Zm61.71 1.93c-1.75 0-2.95 1.02-2.95 2.36 0 1.23 1.05 2.31 3 2.31 1.07 0 1.72-.42 2.33-.96l-.25-.17c-.69.61-1.32.81-1.97.81-.26 0-.92-.1-1.27-.57-.31-.42-.36-1.05-.36-1.45 0-1.11.33-2.12 1.54-2.12.95 0 1.65.77 1.94 1.34h.21v-1.54h-.22c-.08.17-.16.3-.38.3s-.86-.32-1.61-.32Zm14.84 0c-1.75 0-2.95 1.02-2.95 2.36 0 1.23 1.05 2.31 3 2.31 1.07 0 1.72-.42 2.33-.96l-.25-.17c-.69.61-1.32.81-1.97.81-.26 0-.92-.1-1.27-.57-.31-.42-.36-1.05-.36-1.45 0-1.11.33-2.12 1.54-2.12.95 0 1.65.77 1.94 1.34h.21v-1.54h-.22c-.08.17-.16.3-.39.3s-.86-.32-1.61-.32Zm-21.48.01-1.85 3.6c-.25.49-.37.72-.82.77v.16h1.69v-.16c-.28-.01-.68-.03-.68-.28 0-.1.13-.37.37-.85h1.88c.12.21.38.7.38.87 0 .22-.15.22-.67.26v.16h2.7v-.16c-.4.01-.53-.21-.91-.91l-1.86-3.46h-.23Zm-13.73.09v.17c.44.03.7.05.7.6v2.91c0 .37-.12.45-.22.51-.06.03-.07.04-.48.09v.16h2.79v-.16c-.57-.06-.73-.07-.73-.6v-1.22c1.1 0 1.52-.01 2.06-.25.67-.29.76-.76.76-.99 0-1.11-1.52-1.21-2.19-1.21h-2.69Zm5.18 0v.16c.47.03.73.04.73.61v2.91c0 .53-.17.55-.73.6v.16h2.82v-.16c-.55-.06-.73-.08-.73-.6v-1.29h.22l1.73 2.06h1.71v-.16c-.1 0-.23 0-.34-.12l-1.68-1.87c.45-.11 1.31-.32 1.31-1.12 0-1.11-1.77-1.16-2.35-1.16h-2.69Zm18.13 0-.02 1.32h.24c.17-1.05 1.03-1.08 1.61-1.11v3.47c0 .55-.2.56-.81.6v.16h2.98v-.16c-.62-.03-.82-.05-.82-.6v-3.47c.57.03 1.43.06 1.6 1.11h.24l-.02-1.32h-5Zm5.4 0v.17c.38.02.78.03.78.46v3.18c0 .41-.33.43-.78.47v.16h2.92v-.16c-.46-.03-.79-.05-.79-.47v-3.18c0-.45.4-.45.79-.46v-.17h-2.92Zm9.25 0v.16c.38.02.73.03.73.47v3.18c0 .41-.26.43-.73.47v.16h4.88l.33-1.37h-.23c-.53.99-1.38 1.16-2.19 1.16-.54 0-.7-.08-.7-.37v-1.59c.83 0 1.25.2 1.35 1.02h.21v-2.22h-.21c-.13.82-.55.99-1.35.98v-1.53c0-.28.15-.31.61-.31 1.13 0 1.72.16 1.91 1.1h.21v-1.32h-4.81Zm-30.18.23c.67 0 1.01.28 1.01.95 0 .86-.43 1-1.53 1.01v-1.68c.04-.21.06-.27.52-.27Zm-5.33 0c.68 0 .98.25.98 1 0 .82-.37 1.01-1.38.99v-1.76c0-.14.12-.23.4-.23Zm10.89 1.07.84 1.6h-1.63l.79-1.6Zm68.78 4.35c-1.86-.15-3.08 1.34-3.4 2.85-.56 2.64 1.4 4.3 3.37 4.73.86.18 2.25.45 3.69-.54.49-.33 1.14-.9 1.44-2.28.24-1.1-.04-2.22-.69-2.94l1.1-.04.15-.71-4.32-.93-.76 3.55.94.2.54-2.52c.87.19 1.55.52 1.96 1.35.35.7.25 1.36.16 1.77-.46 2.15-2.26 2.33-3.91 1.98-2.12-.45-3.02-1.9-2.71-3.35.19-.89.74-2.01 2.22-2.06l.23-1.06Zm-118.82.33-8.08 1.73.23 1.09 3.67-.79.85 3.96.97-.21-.85-3.96 2.48-.53.96 4.5.97-.21-1.2-5.6Zm116.79 8.45c-1.52-.12-3.25.44-4.04 2.61-1.05 2.89 1.04 4.65 2.71 5.25 1.67.61 4.4.59 5.45-2.3 1.05-2.89-1.04-4.65-2.72-5.26-.42-.15-.9-.27-1.41-.3Zm-.31 1.11c.43.02.87.11 1.33.27 1.83.66 2.79 2.15 2.18 3.84-.61 1.69-2.31 2.22-4.13 1.56-1.83-.66-2.79-2.16-2.18-3.84.46-1.26 1.52-1.88 2.8-1.83ZM15.79 93.88c-.32.02-.63.09-.93.22-1.32.56-1.19 1.83-1.1 2.38l.3 1.71c.23 1.37.14 1.85-.66 2.18-1.09.46-1.81-.7-2.12-1.44-.41-.97-.49-2.26.89-2.85l-.41-.96c-.71.3-1.29.69-1.6 1.59-.16.47-.35 1.2.24 2.6.55 1.3 1.76 2.76 3.55 2 1.21-.51 1.48-1.5 1.3-2.59l-.42-2.38c-.08-.49-.06-1.03.58-1.3 1.15-.49 1.79.52 2.07 1.17.36.86.41 1.99-.74 2.54l.41.96c.82-.39 2.29-1.33 1.16-3.99-.58-1.38-1.57-1.88-2.52-1.83Zm3.11 7.25c-.78.04-1.61.31-2.41.82-2.69 1.68-2.75 3.89-1.76 5.48.33.53 1.78 2.6 4.67 1.34l-.57-.92c-1.83.69-2.79-.19-3.17-.8-1.08-1.74-.18-3.11 1.47-4.14 1.85-1.15 3.42-.71 4.21.56.42.67.84 1.84-.23 2.87l.57.92c1.09-.87 1.63-2.5.5-4.31-.79-1.28-1.98-1.87-3.28-1.81Zm112.71.52-2.01 3.64-6.32-3.49-.53.97 7.18 3.96 2.54-4.61-.86-.47Zm-9.07 3.74c-1.06-.02-2.18.4-3.1 1.63-1.85 2.46-.36 4.75 1.06 5.82 1.42 1.07 4.04 1.85 5.89-.61 1.85-2.46.36-4.75-1.06-5.82-.71-.53-1.72-1-2.79-1.02Zm-.29 1.1c.77-.04 1.61.25 2.38.83 1.55 1.17 2.03 2.88.96 4.31-1.07 1.43-2.85 1.45-4.41.29-1.55-1.17-2.04-2.88-.96-4.31.54-.72 1.25-1.08 2.02-1.12Zm-97.26.85-6.52 5.12.69.88 6.52-5.11-.69-.88Zm2.1 2.89-6.02 5.61 4.14 4.45.72-.67-3.38-3.63 2.01-1.87 3.07 3.3.72-.67-3.07-3.3 1.84-1.72 3.33 3.57.72-.67-4.09-4.39Zm89.23 1.12-.77.77 4.73 4.73-.02.02-7.66-1.8-.94.94 5.86 5.86.77-.77-4.73-4.73h.01l7.71 1.74.89-.89-5.86-5.86Zm-84.05 4.23-5.11 6.52.85.67 4.13-5.27h.02l-.82 7.88.99.77 5.12-6.52-.85-.67-4.13 5.26h-.02l.87-7.84-1.04-.82Zm78.18 1.64-.89.67 2.05 2.73-3.45 2.59-2.05-2.73-.89.67 4.95 6.6.89-.67-2.31-3.08 3.45-2.58 2.31 3.08.89-.67-4.95-6.6Zm-70.59 4.72c-1.25.07-2.42.85-3.27 2.18-1.71 2.66-.83 4.68.75 5.69.52.34 2.72 1.58 4.79-.78l-.91-.58c-1.35 1.41-2.59 1.02-3.2.63-1.72-1.1-1.49-2.73-.44-4.36 1.17-1.82 2.78-2.1 4.04-1.29.67.43 1.54 1.3 1.01 2.68l.91.59c.61-1.25.4-2.95-1.39-4.1-.76-.49-1.53-.69-2.28-.65Zm63.23 1.03c-.6-.03-1.26.12-1.96.49-2.11 1.13-2.56 3.36-1.37 5.59 1.49 2.79 3.68 3 5.33 2.12.55-.29 2.71-1.6 1.65-4.56l-.95.51c.57 1.87-.37 2.76-1.01 3.1-1.8.96-3.11-.03-4.02-1.74-1.02-1.91-.48-3.45.84-4.15.7-.37 1.88-.71 2.84.42l.95-.51c-.49-.71-1.3-1.23-2.29-1.27Zm-56.81 2.15-3.38 7.51 5.54 2.5.4-.9-4.53-2.04 1.13-2.51 4.11 1.85.4-.9-4.11-1.85 1.04-2.3 4.45 2.01.4-.9-5.47-2.46Zm50.04.92-5.53 2.35 3.22 7.59 5.6-2.37-.39-.91-4.58 1.94-1.07-2.54 4.15-1.76-.39-.91-4.15 1.76-.99-2.33 4.5-1.91-.39-.91Zm-6.45 2.6-6.5 1.61.24.96 2.71-.67 1.74 7.04 1.08-.27-1.74-7.04 2.71-.67-.24-.96Zm-31.22.98-4.82 7.32 1.11.25 1.36-2.14 3.21.73.26 2.51 1.18.27-1.08-8.66-1.22-.28Zm5.02 1.12-.58 8.25 1.08.08.47-6.66h.02l3.73 6.96 1.25.09.58-8.25-1.08-.08-.47 6.66h-.02l-3.66-6.95-1.32-.09Zm-4.73.2h.02l.38 3.79-2.49-.56 2.08-3.23Zm16.61.17-3.34.17.41 8.25 3.3-.17c2.71-.14 3.4-2.57 3.3-4.41-.12-2.38-1.52-3.94-3.67-3.84Zm-.1.96c1.52-.08 2.52.92 2.62 3 .11 2.08-.78 3.26-2.23 3.34l-2.16.11-.32-6.34 2.08-.1Z" />
  <path d="M58.9 40.67c-2.99.25-3.56.18-6.8 1.56-2.43.96-4.29 3.51-4.56 5.43-.74.62-1.45 1.25-2.24 2.11-.54.56-.99 1.07-1.43 1.59.1-2.01.55-3.28 1.06-4.8.84-2.83 1.41-2.76 2.3-5.33-2.88 2.42-3.38 3.53-4.69 5.42-1.73 2.48-3.32 5.06-2.06 9.66-.29.55-.58 1.1-.88 1.73-.37.77-.7 1.48-1 2.17-.34-1.62-.3-2.81-.29-4.19-.05-3.03-.13-3.07.55-5.88-2.02 3.19-3.56 5.76-3.86 7.35-.39 2.85.06 5.97 1.78 8.56-.18 1.04-.32 2.14-.4 3.39-.06.84-.07 1.58-.07 2.31-.61-1.42-.79-2.8-1.03-4.06-.62-2.91-1.65-4.56-1.93-7.45-.83 3.65-1.33 8.33-1.1 9.93.58 2.86 2.06 5.7 4.68 7.65.14.67.28 1.34.47 2.1.27 1.04.55 1.99.84 2.89-.79-.46-1.02-.68-1.76-1.78-1.59-2.37-3.04-2.76-4.41-5.42.61 3.77 2.25 7.76 2.94 9.01 1.88 3.41 3.96 5.34 7.18 6.07.53.74 1.09 1.49 1.73 2.29.74.9 1.45 1.69 2.15 2.4-1.13-.52-2.2-1.04-3.53-1.67-2.48-1.19-3.94-1.96-6.34-3.31 1.87 3.3 6.7 7.67 8 8.46 2.68 1.51 4.59 1.89 8 1.29v-.03c.47.28.96.57 1.48.86 1.46.84 2.67 1.49 3.91 2.05.02.03.03.04.04.07-1.55-.04-2.62-.19-4.23-.37-2.79-.36-4.48-.78-7.26-1.56 2.71 2.7 7.68 4.3 9.19 4.5 3.5.45 3.91.11 6.37-1.19.22.06.39.12.62.18.51.12.97.2 1.43.28l-.51.18c-3.67 1.12-5.47 2.65-10.66 2.3 2.32 1.31 5.27 2 8.73 1.38 1.85-.29 5.53-1.85 8.05-3.06v.06c-1.04.62-1.98 1.31-3.09 2.26-1.38 1.2-2.26 2.16-3.31 3.68h1.38c1.05-1.48 1.89-2.36 3.31-3.49 1.45-1.16 2.76-2.27 4.32-2.57v-.08h.09v.09c1.53.3 2.83 1.37 4.32 2.57 1.53 1.29 2.41 2.32 3.4 4.04h1.56c-1.13-1.76-2.05-2.83-3.59-4.23-.4-.35-.77-.64-1.14-.93 2.24.81 4.75 1.46 6.11 1.67 3.42.62 6.37-.07 8.64-1.38-5.14.35-6.94-1.18-10.57-2.3-.17-.05-.37-.12-.55-.18.44-.08.89-.16 1.37-.28.23-.06.41-.12.62-.18 2.5 1.31 2.91 1.65 6.36 1.19 1.56-.2 6.54-1.81 9.19-4.5-2.73.78-4.41 1.2-7.26 1.56-1.55.17-2.63.33-4.23.37 0-.01.01-.02.02-.03 1.27-.56 2.52-1.22 4.03-2.08.49-.28.96-.55 1.4-.82 3.44.6 5.35.22 7.97-1.29 1.36-.79 6.18-5.15 8.09-8.46-2.44 1.35-3.9 2.11-6.34 3.31-1.35.63-2.42 1.14-3.55 1.67.71-.72 1.42-1.5 2.17-2.4.65-.81 1.21-1.57 1.73-2.31 3.23-.75 5.28-2.67 7.19-6.05.65-1.25 2.3-5.23 2.85-9.01-1.32 2.67-2.77 3.05-4.41 5.42-.71 1.11-.93 1.33-1.74 1.79.29-.9.56-1.85.82-2.89.19-.73.33-1.38.48-2.04 2.64-1.94 4.14-4.81 4.67-7.7.28-1.6-.22-6.27-1.1-9.93-.22 2.89-1.26 4.54-1.84 7.45-.26 1.23-.45 2.59-1.05 3.97 0-.71 0-1.42-.05-2.23-.1-1.28-.24-2.4-.44-3.45 1.73-2.58 2.16-5.67 1.72-8.5-.25-1.59-1.78-4.16-3.86-7.35.74 2.81.66 2.85.64 5.88-.02 1.37 0 2.54-.34 4.14-.29-.68-.58-1.36-.94-2.12-.32-.67-.63-1.25-.94-1.83 1.26-4.55-.32-7.11-2-9.57-1.35-1.89-1.85-3-4.78-5.42.94 2.57 1.52 2.5 2.39 5.33.48 1.52.93 2.79 1.05 4.81-.44-.51-.89-1.03-1.42-1.59-.8-.85-1.51-1.47-2.24-2.08-.29-1.92-2.16-4.49-4.57-5.45-3.28-1.39-3.85-1.31-6.8-1.56 1.19 1.25 2.11 2.01 3.49 3.03 2.29 1.65 4.16 2.66 6.4 3.55.87.72 1.7 1.44 2.61 2.42.66.68 1.24 1.31 1.77 1.92a38.989 38.989 0 0 0-4.35-2.75c-2-1.03-3.3-1.65-5.42-2.48 2.16 2.83 3.73 4.32 6.62 6.34 2.35 1.64 3.99 2.52 6.43 3.47.34.59.67 1.17 1.02 1.86.54 1.14 1 2.18 1.39 3.19-.04.14-.06.25-.11.4a45.96 45.96 0 0 0-3.86-4.05c-1.17-1-1.97-1.72-3.21-2.66.9 2.44 1.7 3.89 3.21 6.07 1.72 2.42 3.09 3.82 5.39 5.53.16 1.07.26 2.2.31 3.47.06 1.22.04 2.28-.04 3.28-.05.07-.09.14-.15.21-.63-2.31-1.25-3.68-2.39-5.79-1.04-1.84-1.88-2.95-3.31-4.6.35 2.99.81 4.75 1.84 7.54.93 2.72 1.87 4.5 3.36 6.76-.17.76-.37 1.55-.6 2.43-.39 1.37-.77 2.61-1.17 3.76 0 0-.01 0-.02.01-.1-1.88-.29-3.15-.64-5.06-.45-2.04-.87-3.34-1.65-5.33-.9 3.41-1.25 5.55-1.29 9.1-.1 2.93.06 4.88.5 7.54-.64.95-1.38 1.92-2.24 2.94a32.46 32.46 0 0 1-2.63 2.77c.41-1.17.73-2.1 1.07-3.42.78-2.73 1.16-4.46 1.47-7.26-2.11 2.53-3.25 4.3-4.6 7.26-1.17 2.48-1.78 4.25-2.29 6.64-1 .6-2.08 1.19-3.31 1.81-.41.21-.76.37-1.13.55.6-.94 1.17-1.86 1.87-3.03 1.35-2.47 2.23-4 3.4-6.53-2.78 1.84-4.31 3.22-6.53 5.7-1.79 2.16-2.88 3.71-4.1 5.97-.74.2-1.53.38-2.43.55-.7.15-1.34.25-1.96.32-1.93-.54-4-.81-5.64.3-.14 0-.25 0-.4.02l.07.05c-.16.07-.3.14-.45.21l.08-.1c.07-.04.24-.13.29-.16-.04-.02-.08-.03-.12-.05l.12-.14c-.17 0-.31 0-.47-.01-1.89-.74-3.56-.57-5.09-.15-.64-.06-1.31-.15-2.07-.3-.88-.16-1.67-.34-2.41-.54-1.19-2.26-2.27-3.82-4.12-5.98-2.16-2.48-3.69-3.86-6.53-5.7 1.23 2.53 2.11 4.06 3.49 6.53.67 1.19 1.24 2.11 1.83 3.05-.39-.19-.76-.36-1.19-.57-1.22-.63-2.3-1.22-3.3-1.82-.48-2.39-1.09-4.16-2.22-6.63-1.38-2.96-2.53-4.73-4.69-7.26.36 2.8.74 4.53 1.47 7.26.39 1.32.72 2.26 1.16 3.44A32.89 32.89 0 0 1 45 92.81c-.9-1.04-1.65-2.03-2.31-3 .47-2.63.63-4.57.56-7.48-.08-3.55-.42-5.69-1.38-9.1-.73 1.99-1.15 3.29-1.56 5.33-.38 1.87-.57 3.13-.72 4.94-.39-1.12-.75-2.32-1.12-3.66-.23-.88-.43-1.66-.61-2.42 1.47-2.26 2.4-4.05 3.37-6.77.99-2.79 1.45-4.55 1.75-7.54-1.37 1.65-2.21 2.76-3.22 4.6-1.18 2.11-1.79 3.48-2.48 5.79a.864.864 0 0 1-.1-.16A27.42 27.42 0 0 1 37.1 70c.06-1.29.17-2.43.34-3.5 2.33-1.69 3.7-3.1 5.45-5.51 1.48-2.18 2.28-3.63 3.12-6.07-1.19.94-1.99 1.67-3.12 2.66-1.59 1.46-2.54 2.45-3.95 4.05a3.25 3.25 0 0 1-.07-.3c.41-1.04.88-2.11 1.45-3.29.34-.69.67-1.3 1-1.88 2.44-.94 4.07-1.82 6.35-3.45 2.94-2.02 4.51-3.51 6.71-6.34-2.16.83-3.46 1.45-5.42 2.48-1.79.96-2.97 1.72-4.46 2.81.54-.63 1.13-1.28 1.79-1.98.93-.97 1.76-1.68 2.61-2.39 2.24-.9 4.13-1.92 6.4-3.59 1.44-1.02 2.36-1.79 3.59-3.03Zm13.05 63.92.09.06v.13h-.09v-.2Z" />
</svg>