<?xml version="1.0" encoding="UTF-8"?>
<svg id="Layer_1" data-name="Layer 1" xmlns="http://www.w3.org/2000/svg" viewBox="0 0 144 144">
  <defs>
    <style>
      .cls-1 {
        fill="currentColor";
        stroke-width: 0px;
      }
    </style>
  </defs>
  <path class="cls-1" d="M103.89,39.92c-8.49-8.49-19.77-13.16-31.75-13.14h0c-11.99-.01-23.28,4.65-31.78,13.14-8.5,8.48-13.18,19.75-13.18,31.74,0,24.79,20.18,44.97,44.97,44.97,11.98,0,23.26-4.68,31.74-13.18,8.49-8.5,13.15-19.79,13.13-31.79.02-11.97-4.65-23.24-13.13-31.73ZM82.45,58.68c.76,0,1.42.3,1.64.3s.31-.13.39-.28h.23v1.44h-.21c-.3-.53-1.01-1.25-1.98-1.25-1.24,0-1.57.94-1.57,1.98,0,.37.05.96.36,1.35.36.44,1.03.54,1.29.54.66,0,1.3-.18,2-.75l.25.15c-.62.51-1.28.9-2.36.9-1.97,0-3.04-1.01-3.04-2.15,0-1.25,1.22-2.2,3-2.2ZM85.29,58.92v-.15h0s4.89,0,4.89,0v1.23h-.21c-.19-.87-.8-1.03-1.94-1.03-.47,0-.62.02-.62.29v1.42c.81,0,1.25-.15,1.38-.91h.22v2.07h-.22c-.1-.77-.54-.95-1.38-.95v1.49c0,.27.16.34.71.34.83,0,1.7-.16,2.23-1.09h.24l-.34,1.28h-4.96v-.15c.48-.04.75-.06.75-.44v-2.97c0-.41-.36-.42-.75-.44ZM92.17,77.93h.21v2.22h-.21c-.1-.82-.53-1.02-1.35-1.02v1.59c0,.29.16.37.7.37.82,0,1.67-.17,2.19-1.16h.23l-.33,1.37h-4.88v-.16c.48-.04.73-.06.73-.47v-3.18c0-.43-.35-.45-.73-.47v-.16h4.81v1.32h-.21c-.19-.93-.78-1.1-1.91-1.1-.46,0-.61.02-.61.31v1.53c.8,0,1.23-.16,1.35-.98ZM85.99,76.75c.75,0,1.39.32,1.61.32s.3-.14.39-.3h.22v1.54h-.21c-.29-.57-.99-1.34-1.94-1.34-1.22,0-1.54,1.01-1.54,2.12,0,.39.05,1.02.36,1.45.35.47,1.01.57,1.27.57.65,0,1.27-.2,1.97-.81l.25.17c-.61.55-1.26.96-2.33.96-1.94,0-3-1.08-3-2.31,0-1.34,1.2-2.36,2.95-2.36h0ZM82.4,81.13v.16h-2.92v-.16c.45-.03.78-.06.78-.47v-3.18c0-.43-.39-.45-.78-.46v-.17h2.92v.17c-.39.01-.79.02-.79.46v3.18c0,.42.33.44.79.47ZM78.08,81.13v.16h-2.98v-.16c.61-.04.81-.05.81-.6v-3.47c-.58.03-1.44.06-1.61,1.11h-.24l.03-1.32h5l.02,1.32h-.24c-.17-1.05-1.03-1.08-1.6-1.11v3.47c0,.56.2.57.82.6ZM78.33,71.74v-.16c.3-.02.42-.14.42-.39v-1.64c0-.19,0-.56-.5-.56-.36,0-.75.33-.75.39v1.81c0,.16.03.35.44.39v.16h-2.17v-.16c.33-.05.48-.07.48-.41v-3.47c0-.32-.13-.34-.48-.39v-.16h0s1.73,0,1.73,0v1.91c.43-.38.82-.53,1.29-.53.5,0,1.21.21,1.21.96v1.69c0,.12,0,.41.44.41v.16h-2.12ZM73.1,62.76c.51-.04.75-.09.75-.49v-2.91c-.47-.42-.61-.44-.72-.44v-.15h1.79l2.94,2.62h.02v-1.86c0-.37-.1-.57-.79-.61v-.15h1.82v.15c-.61.06-.66.2-.66.49v3.61h-.24l-3.77-3.33h-.02v2.45c0,.44.18.56.8.61v.15h-1.92v-.15ZM72.81,68.72c.48-.31.88-.61,1.5-1.26h0s.22,0,.22,0v1.15h.85v.3h-.85v2.05c0,.11,0,.39.35.39.26,0,.42-.21.51-.35l.23.07c-.19.29-.52.76-1.33.76-.98,0-1.01-.57-1.02-.71v-2.2h-.47v-.18ZM73.14,76.77h.23v1.54h-.21c-.29-.57-.99-1.34-1.94-1.34-1.22,0-1.54,1.01-1.54,2.12,0,.39.05,1.02.36,1.45.35.47,1.01.57,1.27.57.65,0,1.27-.2,1.97-.81l.25.17c-.61.55-1.26.96-2.33.96-1.94,0-3-1.08-3-2.31,0-1.34,1.2-2.36,2.95-2.36h0c.75,0,1.39.32,1.61.32s.3-.14.38-.3ZM71.99,68.61v2.58c0,.21.07.36.43.39v.16h-2.16v-.16c.33-.06.48-.08.48-.41v-2c0-.31-.14-.35-.48-.4v-.16h1.73ZM70.66,67.57c0-.28.3-.53.7-.53s.7.24.7.53-.31.52-.7.52c-.42,0-.7-.23-.7-.52ZM67.39,62.76c.48-.04.75-.06.75-.44v-2.97c0-.41-.36-.42-.75-.44v-.15h0s4.89,0,4.89,0v1.23h-.21c-.19-.87-.8-1.03-1.94-1.03-.47,0-.62.02-.62.29v1.42c.81,0,1.25-.15,1.37-.91h.22v2.07h-.22c-.1-.77-.53-.95-1.37-.95v1.49c0,.27.16.34.71.34.83,0,1.7-.16,2.23-1.09h.24l-.34,1.28h-4.96v-.15ZM64.13,62.76c.46-.03.79-.06.79-.44v-2.97c0-.41-.4-.42-.79-.44v-.15h2.97v.15c-.4.01-.8.02-.8.44v2.97c0,.39.34.41.8.44v.15h-2.97v-.15ZM63.8,68.61h2v.16c-.13.01-.34.03-.34.2,0,.14.31.66.76,1.57l.61-1.16c-.09-.23-.14-.37-.19-.45-.08-.14-.18-.14-.4-.16v-.16h2.11v.16c-.23.01-.43.03-.43.17s.38,1.03.54,1.56h.02c.24-.52.7-1.33.7-1.47,0-.22-.18-.23-.43-.25v-.16h1.22v.16c-.17.03-.3.04-.45.34l-1.4,2.73h-.21l-.9-2.06h-.05l-1.1,2.06h-.22l-1.34-2.54c-.23-.44-.28-.49-.51-.53v-.16ZM65.09,80h-1.88c-.23.47-.37.74-.37.85,0,.25.4.27.68.28v.16h-1.69v-.16c.45-.05.57-.28.82-.77l1.85-3.6h0s.23,0,.23,0l1.86,3.46c.37.7.51.93.91.91v.16h-2.7v-.16c.52-.03.67-.04.67-.26,0-.18-.27-.66-.38-.88ZM61.34,58.68h0c.76,0,1.42.3,1.64.3s.3-.13.39-.28h.23v1.44h-.21c-.3-.53-1.01-1.25-1.98-1.25-1.24,0-1.57.94-1.57,1.98,0,.37.05.96.36,1.35.36.44,1.03.54,1.29.54.66,0,1.3-.18,2-.75l.25.15c-.62.51-1.28.9-2.36.9-1.98,0-3.04-1.01-3.04-2.15,0-1.25,1.22-2.2,3-2.2h0ZM58.77,81.13v.16h-2.82v-.16c.57-.05.73-.07.73-.6v-2.91c0-.57-.26-.58-.73-.61v-.16h0s2.69,0,2.69,0c.58,0,2.35.05,2.35,1.16,0,.81-.86,1.01-1.31,1.12l1.68,1.87c.12.12.24.12.34.12v.16h-1.71l-1.73-2.06h-.23v1.29c0,.53.18.55.73.6ZM53.56,81.13v.16h-2.79v-.16c.41-.05.42-.06.48-.09.1-.06.22-.14.22-.51v-2.91c0-.55-.26-.57-.7-.6v-.17h2.69c.67,0,2.19.1,2.19,1.21,0,.23-.09.7-.76.99-.53.24-.96.24-2.06.25v1.22c0,.53.16.55.73.6ZM55.45,63.03c-.81,0-1.19-.21-1.45-.21-.18,0-.22.11-.25.21h-.25v-1.52h.25c.17.62.66,1.31,1.74,1.31,1.02,0,1.06-.61,1.06-.69,0-.41-.4-.56-.95-.75l-.57-.2c-1.45-.5-1.45-1.03-1.45-1.31,0-.37.26-1.21,1.88-1.21.68,0,1.08.2,1.32.2.2,0,.24-.09.28-.21h0s0,0,0,0h.25v1.33h-.24c-.15-.43-.66-1.14-1.66-1.14-.44,0-.91.18-.91.58,0,.33.16.46.87.72l1.25.45c.29.1.93.46.93,1.13,0,.54-.54,1.28-2.1,1.28ZM101.46,93.71c2.44-1.19,3.9-1.96,6.34-3.31-1.91,3.3-6.73,7.67-8.09,8.46-2.62,1.51-4.53,1.89-7.97,1.29-.45.27-.91.54-1.4.82-1.51.86-2.75,1.52-4.03,2.08,0,.01-.01.02-.02.03,1.6-.04,2.67-.19,4.23-.37,2.85-.36,4.54-.78,7.26-1.56-2.65,2.7-7.63,4.3-9.19,4.5-3.46.45-3.86.11-6.36-1.19-.22.06-.4.12-.62.18-.49.11-.94.2-1.37.28.18.06.38.13.55.18,3.63,1.12,5.43,2.65,10.57,2.3-2.27,1.31-5.22,2-8.64,1.38-1.36-.21-3.87-.85-6.11-1.67.37.29.74.59,1.14.93,1.53,1.39,2.45,2.47,3.59,4.23h-1.56c-.99-1.72-1.87-2.76-3.4-4.04-1.49-1.2-2.79-2.27-4.32-2.57v-.09s-.06,0-.09,0v.08c-1.56.3-2.86,1.41-4.32,2.57-1.42,1.13-2.26,2.02-3.31,3.49h-1.38c1.05-1.52,1.93-2.47,3.31-3.68,1.11-.95,2.05-1.65,3.08-2.26v-.06c-2.51,1.21-6.2,2.77-8.04,3.06-3.46.62-6.41-.07-8.73-1.38,5.19.35,6.99-1.18,10.66-2.3.17-.05.34-.12.51-.18-.45-.08-.92-.16-1.43-.28-.23-.06-.4-.12-.62-.18-2.46,1.31-2.86,1.65-6.37,1.19-1.51-.2-6.49-1.81-9.19-4.5,2.78.78,4.47,1.2,7.26,1.56,1.61.17,2.68.33,4.23.37-.02-.03-.03-.04-.04-.07-1.23-.55-2.45-1.2-3.91-2.05-.52-.29-1.01-.58-1.48-.86,0,.01,0,.02,0,.03-3.4.61-5.31.22-8-1.29-1.3-.79-6.13-5.15-8-8.46,2.41,1.35,3.86,2.11,6.34,3.31,1.33.63,2.39,1.14,3.53,1.67-.7-.72-1.4-1.5-2.15-2.4-.65-.8-1.21-1.55-1.73-2.29-3.23-.73-5.3-2.66-7.18-6.07-.69-1.25-2.34-5.23-2.94-9.01,1.37,2.67,2.83,3.05,4.41,5.42.74,1.1.98,1.33,1.76,1.78-.29-.9-.57-1.84-.84-2.89-.19-.75-.33-1.42-.47-2.1-2.62-1.94-4.1-4.78-4.68-7.65-.23-1.6.27-6.27,1.1-9.93.28,2.89,1.31,4.54,1.93,7.45.24,1.25.42,2.64,1.03,4.06,0-.73.02-1.47.08-2.31.08-1.25.22-2.35.4-3.39-1.72-2.59-2.17-5.72-1.78-8.56.31-1.59,1.84-4.16,3.86-7.35-.68,2.81-.6,2.85-.55,5.88-.01,1.38-.05,2.57.29,4.19.3-.69.62-1.4,1-2.17.3-.64.59-1.18.88-1.73-1.25-4.61.33-7.18,2.06-9.66,1.31-1.89,1.81-3,4.69-5.42-.89,2.57-1.46,2.5-2.3,5.33-.51,1.52-.97,2.79-1.06,4.8.44-.51.9-1.03,1.43-1.59.78-.86,1.5-1.49,2.24-2.11.27-1.92,2.13-4.47,4.56-5.43,3.24-1.39,3.82-1.31,6.8-1.56h0c-1.23,1.25-2.15,2.02-3.59,3.03-2.27,1.67-4.16,2.68-6.4,3.59-.85.71-1.68,1.42-2.61,2.39-.66.7-1.25,1.35-1.79,1.98,1.49-1.09,2.67-1.84,4.46-2.81,1.96-1.03,3.26-1.65,5.42-2.48-2.2,2.83-3.77,4.32-6.71,6.34-2.28,1.62-3.91,2.5-6.35,3.45-.33.58-.66,1.2-1,1.88-.57,1.18-1.05,2.25-1.45,3.29.03.11.04.19.08.3,1.41-1.59,2.37-2.59,3.95-4.05,1.13-1,1.94-1.72,3.12-2.66-.84,2.44-1.65,3.89-3.12,6.07-1.75,2.4-3.11,3.81-5.45,5.51-.17,1.07-.28,2.22-.34,3.5-.04,1.25,0,2.32.08,3.34.04.05.07.1.1.16.69-2.31,1.3-3.68,2.48-5.79,1-1.84,1.85-2.95,3.22-4.6-.3,2.99-.76,4.75-1.75,7.54-.97,2.73-1.9,4.51-3.37,6.78.18.75.38,1.54.61,2.42.37,1.33.73,2.53,1.12,3.66.15-1.82.34-3.08.72-4.94.41-2.04.84-3.34,1.56-5.33.96,3.41,1.3,5.55,1.38,9.1.07,2.91-.1,4.85-.56,7.48.66.97,1.41,1.96,2.31,3,.9,1.08,1.76,1.99,2.63,2.79-.43-1.18-.77-2.12-1.16-3.44-.73-2.73-1.11-4.46-1.47-7.26,2.16,2.53,3.31,4.3,4.69,7.26,1.13,2.48,1.74,4.24,2.22,6.63,1,.6,2.07,1.19,3.3,1.82.43.21.79.38,1.19.57-.59-.94-1.15-1.87-1.83-3.05-1.39-2.47-2.27-4-3.49-6.53,2.83,1.84,4.37,3.22,6.52,5.7,1.84,2.17,2.93,3.72,4.12,5.98.74.2,1.53.38,2.41.54.75.15,1.43.24,2.07.3,1.53-.42,3.2-.58,5.09.15.16,0,.3,0,.47.01l-.12.14s.08.03.12.05c.14,0,.26,0,.4-.02,1.64-1.12,3.71-.85,5.64-.3.62-.07,1.26-.18,1.96-.33.89-.17,1.69-.35,2.43-.55,1.22-2.26,2.3-3.81,4.1-5.97,2.21-2.48,3.75-3.86,6.53-5.7-1.17,2.53-2.05,4.06-3.4,6.53-.69,1.18-1.27,2.1-1.87,3.03.38-.18.72-.35,1.13-.55,1.23-.63,2.31-1.21,3.31-1.81.51-2.4,1.13-4.16,2.29-6.64,1.34-2.96,2.49-4.73,4.6-7.26-.31,2.8-.69,4.53-1.47,7.26-.34,1.31-.66,2.25-1.07,3.42.86-.8,1.72-1.7,2.63-2.77.87-1.02,1.6-1.99,2.24-2.94-.44-2.66-.6-4.61-.5-7.54.04-3.55.38-5.69,1.29-9.1.78,1.99,1.2,3.29,1.65,5.33.35,1.91.54,3.17.64,5.06,0,0,.01,0,.02-.01.41-1.15.79-2.38,1.17-3.76.23-.88.42-1.67.6-2.43-1.49-2.26-2.42-4.04-3.36-6.76-1.03-2.79-1.48-4.55-1.84-7.54,1.43,1.65,2.26,2.76,3.31,4.6,1.14,2.11,1.76,3.48,2.39,5.79.05-.07.09-.14.15-.21.07-1,.09-2.06.04-3.28-.04-1.27-.15-2.41-.31-3.47-2.3-1.71-3.67-3.12-5.39-5.53-1.52-2.18-2.32-3.63-3.21-6.07,1.24.94,2.04,1.67,3.21,2.66,1.55,1.46,2.51,2.45,3.86,4.05.05-.15.07-.26.11-.4-.39-1.01-.85-2.05-1.39-3.19-.35-.69-.68-1.27-1.02-1.86-2.44-.95-4.08-1.83-6.43-3.47-2.89-2.02-4.46-3.52-6.62-6.34,2.12.83,3.42,1.45,5.42,2.48,1.7.93,2.9,1.71,4.35,2.75-.54-.61-1.12-1.24-1.78-1.92-.91-.98-1.74-1.7-2.61-2.42-2.23-.9-4.11-1.91-6.4-3.55-1.39-1.02-2.31-1.79-3.49-3.03,2.95.25,3.52.18,6.8,1.56,2.4.96,4.27,3.53,4.57,5.45.73.61,1.44,1.23,2.24,2.08.53.56.98,1.08,1.42,1.59-.12-2.02-.57-3.29-1.05-4.81-.87-2.83-1.45-2.76-2.39-5.33,2.93,2.42,3.43,3.53,4.78,5.42,1.68,2.46,3.26,5.02,2,9.57.31.58.62,1.16.94,1.83.36.76.65,1.44.94,2.12.35-1.6.33-2.77.34-4.14.02-3.03.09-3.07-.64-5.88,2.08,3.19,3.61,5.76,3.86,7.35.44,2.82,0,5.92-1.72,8.5.19,1.06.34,2.18.44,3.45.05.81.05,1.52.05,2.23.6-1.39.79-2.75,1.05-3.97.58-2.91,1.61-4.56,1.84-7.45.89,3.65,1.39,8.33,1.1,9.93-.53,2.89-2.03,5.76-4.67,7.7-.14.65-.28,1.3-.48,2.04-.26,1.05-.53,1.99-.82,2.89.81-.46,1.03-.68,1.74-1.79,1.64-2.37,3.09-2.76,4.41-5.42-.55,3.77-2.2,7.76-2.85,9.01-1.9,3.38-3.96,5.3-7.19,6.05-.52.75-1.09,1.51-1.73,2.31-.75.9-1.46,1.69-2.17,2.4,1.12-.52,2.19-1.04,3.55-1.67Z"/>
  <path class="cls-1" d="M75.45,132.07l-2.08.1.32,6.34,2.16-.11c1.45-.07,2.33-1.26,2.23-3.34-.1-2.08-1.11-3.08-2.62-3Z"/>
  <polygon class="cls-1" points="71.95 104.79 72.05 104.79 72.05 104.66 71.95 104.59 71.95 104.79"/>
  <path class="cls-1" d="M71.39,104.72c.15-.07.29-.14.45-.21l-.07-.05s-.23.12-.29.16l-.08.1Z"/>
  <path class="cls-1" d="M106.59,37.21c-9.22-9.22-21.45-14.3-34.45-14.3h0c-26.89,0-48.79,21.86-48.83,48.73.04,26.89,21.94,48.8,48.83,48.83,26.88-.03,48.74-21.94,48.73-48.83,0-12.99-5.07-25.22-14.28-34.44ZM105.59,105.15c-8.95,8.96-20.83,13.91-33.45,13.91-26.12-.02-47.38-21.28-47.41-47.41.02-26.1,21.29-47.33,47.41-47.32h0c12.62,0,24.5,4.92,33.45,13.88,8.95,8.95,13.87,20.83,13.86,33.44.01,12.63-4.91,24.53-13.87,33.5Z"/>
  <path class="cls-1" d="M12.35,77.35c-.16-1.55-1.33-2.46-2.91-2.53h0c-.23-.01-.46,0-.7.02-1.92.19-3.21,1.4-3.04,3.18.18,1.77,1.69,2.7,3.61,2.51,1.92-.19,3.21-1.4,3.04-3.18Z"/>
  <polygon class="cls-1" points="63.33 79.75 64.96 79.75 64.12 78.15 63.33 79.75"/>
  <path class="cls-1" d="M72.14,20.98c-13.56,0-26.3,5.3-35.88,14.9-9.55,9.57-14.81,22.28-14.79,35.77-.04,27.94,22.69,50.71,50.66,50.76,27.93-.05,50.66-22.81,50.67-50.76,0-27.92-22.74-50.65-50.67-50.67ZM72.14,120.99c-27.17-.03-49.3-22.17-49.34-49.34.04-27.15,22.17-49.24,49.34-49.24h0,0,0c13.14,0,25.5,5.13,34.82,14.45,9.31,9.31,14.44,21.67,14.43,34.8,0,27.17-22.08,49.31-49.25,49.34Z"/>
  <path class="cls-1" d="M72.14,19.05h0c-29.02.03-52.62,23.62-52.6,52.59h0c-.01,14.05,5.46,27.26,15.41,37.21,9.94,9.94,23.15,15.41,37.19,15.39,14,.01,27.18-5.44,37.12-15.36,9.97-9.95,15.46-23.17,15.48-37.23-.02-28.97-23.62-52.57-52.6-52.6ZM72.14,122.92c-28.23-.04-51.18-23.01-51.18-51.2v-.14c0-13.6,5.3-26.41,14.94-36.06,9.68-9.69,22.55-15.04,36.24-15.05h0c28.21.01,51.17,22.97,51.18,51.18,0,28.22-22.97,51.22-51.18,51.27Z"/>
  <polygon class="cls-1" points="48.4 9.66 48.4 9.66 48.38 9.67 48.32 13.55 50.75 12.71 48.4 9.66"/>
  <polygon class="cls-1" points="23.1 26.62 23.1 26.62 23.08 26.64 24.93 30.02 26.62 28.1 23.1 26.62"/>
  <path class="cls-1" d="M12.92,49.52c1.81.72,3.52.24,4.18-1.43.66-1.67-.25-3.19-2.06-3.91-.45-.18-.9-.28-1.32-.31h0c-1.28-.09-2.36.49-2.86,1.74-.66,1.67.25,3.19,2.06,3.91Z"/>
  <path class="cls-1" d="M131.89,92.66c-.46-.16-.9-.25-1.33-.27-1.28-.05-2.34.57-2.8,1.83-.61,1.69.35,3.18,2.18,3.84,1.83.66,3.52.12,4.13-1.56.61-1.69-.35-3.18-2.18-3.84Z"/>
  <path class="cls-1" d="M54.21,78.08c0-.75-.3-1-.98-1h0c-.28,0-.39.09-.4.23v1.76c1.01.01,1.38-.18,1.38-.99Z"/>
  <path class="cls-1" d="M59.56,78.02c0-.66-.34-.95-1.01-.95-.46,0-.48.07-.52.27v1.68c1.09,0,1.53-.15,1.53-1.01Z"/>
  <path class="cls-1" d="M105.23,38.57c-8.86-8.86-20.61-13.74-33.09-13.73h0c-25.84-.02-46.87,20.98-46.9,46.81.02,25.84,21.06,46.88,46.9,46.9,12.49,0,24.24-4.89,33.09-13.76,8.86-8.87,13.73-20.64,13.72-33.13.01-12.47-4.86-24.22-13.71-33.08ZM104.24,103.8c-8.58,8.59-19.98,13.33-32.1,13.33-25.07,0-45.47-20.4-45.48-45.48,0-12.12,4.74-23.51,13.33-32.1,8.6-8.58,20.01-13.3,32.14-13.29,12.12-.01,23.52,4.71,32.11,13.3,8.58,8.58,13.3,19.98,13.28,32.09.02,12.14-4.7,23.56-13.29,32.15Z"/>
  <polygon class="cls-1" points="58.94 130.94 58.94 130.94 56.86 134.17 59.35 134.74 58.97 130.95 58.94 130.94"/>
  <path class="cls-1" d="M118.87,25.84c.88-.92.28-1.63-.12-2.01l-2-1.92h0s-1.94,2.02-1.94,2.02l1.86,1.78c.59.56,1.35,1.01,2.19.13Z"/>
  <path class="cls-1" d="M72,0C32.24,0,0,32.24,0,72s32.24,72,72,72,72-32.23,72-72S111.77,0,72,0ZM137.12,67.42l-2.3-1.75-2.2,1.75.92-2.67-2.11-1.56h2.66l.83-2.3s.74,2.3.74,2.3h2.66l-2.11,1.56.92,2.67ZM134.89,47.07l.38,1.25-3.12,3.42,4.49,1.12.38,1.26-5.64-1.56-3.19.96-.32-1.07,3.19-.96,3.83-4.42h0ZM131.27,39.09h0l2.75,6.09-.9.41-1.14-2.54-6.61,2.98-.46-1.01,6.61-2.98-1.15-2.54.9-.4ZM129.8,36.5l-7.1,4.29-.58-.96,7.1-4.29.58.96ZM121.91,29.22c.39-.28.85-.47,1.33-.51h0c.8-.06,1.67.29,2.41,1.3,1.7,2.34.47,3.58-.23,4.16l-.62-.85c1-.8.7-1.89.15-2.65-.41-.57-1.27-1.41-2.28-.67-.57.41-.46.95-.27,1.41l.95,2.23c.43,1.01.38,2.05-.68,2.82-1.58,1.15-3.09,0-3.92-1.14-.9-1.24-.88-1.99-.83-2.49.1-.94.58-1.46,1.2-1.91l.62.85c-1.21.88-.84,2.13-.22,2.98.47.65,1.44,1.63,2.4.93.7-.51.68-1,.15-2.29l-.68-1.6c-.21-.51-.63-1.72.54-2.57ZM116.61,20.45h0l2.75,2.63c.98.94,1.63,2.21.42,3.47-.84.88-1.59.77-2.19.63.21.47.4.94-.36,1.8l-.98,1.12c-.31.34-.39.5-.27.88l-.13.13-.98-.94c.23-.47,1.07-1.4,1.29-1.62.47-.49.92-1.15-.04-2.07l-1.95-1.86-2.44,2.55-.8-.77,5.69-5.94h0,0ZM108.74,14.53l4.99,3.36-.55.82-4.06-2.74-1.41,2.1,3.75,2.53-.55.82-3.75-2.53-1.54,2.29,4.13,2.79-.55.82-5.05-3.41,4.62-6.85h0ZM99.77,9.81h0l1.1.56-1.07,7.32h.02s5.24-5.2,5.24-5.2l1.11.56-6.39,5.99-1.05-.53,1.03-8.7h0ZM95.78,8.37l1.05.38-2.81,7.76-1.05-.38,2.8-7.75ZM85.92,5.66h0s1.28.29,1.28.29l2.53,7.37h.02s1.47-6.46,1.47-6.46l1.05.24-1.81,8-1.21-.28-2.6-7.39h-.02s-1.47,6.46-1.47,6.46l-1.05-.24,1.81-8ZM75.33,9.92l.55-5.45h0s1.1.11,1.1.11l-.52,5.14c-.18,1.77.85,2.37,1.84,2.47,1.01.1,2.2-.25,2.37-2.03l.52-5.16,1.1.11-.54,5.3c-.17,1.67-1.36,2.98-3.6,2.75-2.2-.22-3-1.73-2.84-3.25ZM68.1,4.5h0s.09.99.09.99l-4.89.44.23,2.53,4.52-.41.09.99-4.52.41.25,2.76,4.98-.45.09.99-6.09.55-.74-8.25,6.01-.54ZM59.2,5.5h0s0,0,0,0l.21.97-2.74.59,1.52,7.12-1.09.24-1.53-7.12-2.74.59-.21-.97,6.56-1.41h0ZM47.42,8.69l1.2-.42,5.56,6.85-1.16.4-1.57-2.01-3.14,1.09-.03,2.57-1.09.38.23-8.86ZM43.43,10.29h0s.44.89.44.89l-2.52,1.23,3.2,6.53-1,.49-3.19-6.54-2.51,1.23-.44-.89,6.03-2.95ZM31.98,16.66c.88-.64,1.6-.87,2.19-.86h0c.99,0,1.61.65,1.97,1.1l-.85.61c-.8-1-1.89-.7-2.64-.15-.57.41-1.41,1.27-.67,2.28.41.57.95.46,1.41.27l2.22-.95c1.01-.43,2.05-.38,2.82.68,1.15,1.58,0,3.09-1.14,3.93-1.24.9-1.99.88-2.49.83-.94-.1-1.46-.57-1.91-1.2l.84-.62c.88,1.21,2.13.84,2.98.22.65-.47,1.63-1.44.93-2.4-.51-.7-1-.69-2.29-.15l-1.6.68c-.51.22-1.72.63-2.57-.54-.76-1.04-.83-2.56.79-3.74ZM22.61,25.31h0s8.16,3.2,8.16,3.2l-.8.91-2.34-.97-2.18,2.48,1.23,2.23-.76.86-4.14-7.77.83-.95ZM13.47,37.97l6.52,2.25v-.02s-4.71-5.13-4.71-5.13l.65-1.04,6.68,1.99v-.02s-4.87-4.86-4.87-4.86l.65-1.04h0s5.86,6.22,5.86,6.22l-.62,1-6.81-2.02v.02s4.79,5.24,4.79,5.24l-.62,1-8.15-2.55.64-1.03ZM9.95,45.24c.71-1.79,2.05-2.43,3.35-2.5.78-.04,1.56.12,2.18.37,1.66.66,3.69,2.48,2.55,5.35-1.14,2.86-3.87,2.79-5.53,2.13-1.66-.66-3.69-2.48-2.55-5.35ZM7.74,51.91l7.92,2.31-.31,1.07-7.92-2.31.31-1.07ZM8.26,63.28l.83-2.3h0s0,0,0,0h0s.82,2.3.82,2.3h2.67l-2.11,1.56.92,2.66-2.3-1.75-2.3,1.75.92-2.66-2.02-1.56h2.57ZM4.73,78.12c-.31-3.05,2.14-4.24,3.9-4.42.22-.02.45-.03.7-.02h0c1.69.05,3.74.9,4.01,3.57.31,3.05-2.13,4.24-3.9,4.41-1.76.18-4.39-.5-4.7-3.55ZM6.23,85.66l-.23-1.09,8.08-1.73h0s0,0,0,0h0s1.2,5.6,1.2,5.6l-.97.21-.96-4.5-2.48.53.85,3.96-.97.21-.85-3.96-3.67.79ZM10.41,99.3c-.6-1.41-.41-2.13-.24-2.6.31-.89.89-1.29,1.6-1.59l.41.96c-1.37.58-1.3,1.87-.89,2.85.31.74,1.03,1.91,2.12,1.44.79-.34.89-.81.66-2.18l-.3-1.71c-.09-.55-.22-1.82,1.1-2.38.3-.13.61-.2.93-.22h0c.95-.05,1.94.45,2.53,1.83,1.13,2.65-.35,3.59-1.16,3.99l-.41-.96c1.15-.55,1.11-1.68.74-2.54-.27-.64-.91-1.66-2.07-1.17-.64.27-.66.82-.58,1.3l.42,2.38c.18,1.08-.09,2.07-1.3,2.59-1.8.76-3-.7-3.55-2ZM14.73,107.43c-.99-1.59-.93-3.8,1.76-5.48.81-.51,1.63-.78,2.41-.82h0c1.3-.06,2.48.53,3.28,1.81,1.13,1.81.59,3.44-.5,4.31l-.57-.92c1.07-1.03.65-2.2.23-2.87-.79-1.27-2.37-1.71-4.21-.56-1.65,1.03-2.55,2.41-1.47,4.14.38.62,1.34,1.5,3.17.8l.57.92c-2.89,1.26-4.35-.82-4.67-1.34ZM18.48,112.46l6.52-5.12.69.88-6.52,5.11-.69-.88ZM25.22,120.29l-4.14-4.45,6.02-5.61h0s4.09,4.39,4.09,4.39l-.72.67-3.33-3.58-1.84,1.72,3.07,3.3-.72.67-3.07-3.3-2.01,1.87,3.38,3.63-.72.67ZM31.35,125.38l.82-7.87h-.02s-4.13,5.25-4.13,5.25l-.85-.67,5.11-6.52h0l1.04.82-.87,7.82h.02s4.13-5.25,4.13-5.25l.85.67-5.12,6.52-.99-.78ZM41.61,123.42c-1.25-.81-2.86-.53-4.04,1.29-1.05,1.63-1.28,3.26.44,4.36.61.39,1.85.78,3.2-.63l.91.58c-2.07,2.37-4.26,1.12-4.79.78-1.57-1.01-2.46-3.03-.75-5.69.86-1.33,2.03-2.1,3.27-2.18.75-.04,1.52.16,2.28.65,1.79,1.15,2,2.85,1.39,4.1l-.91-.59c.52-1.38-.35-2.26-1.01-2.68ZM51.35,128.48l-4.45-2.01-1.04,2.3,4.11,1.85-.4.9-4.11-1.85-1.13,2.51,4.53,2.04-.4.9-5.54-2.5,3.38-7.51h0s0,0,0,0l5.47,2.46-.4.9ZM59.78,138.29l-.26-2.51-3.21-.73-1.36,2.14-1.11-.25,4.82-7.32h0s1.22.28,1.22.28l1.08,8.66-1.18-.27ZM69.65,139.45l-1.25-.09-3.73-6.96h-.02s-.47,6.66-.47,6.66l-1.08-.08.58-8.25h0,0l1.32.09,3.66,6.95h.02s.47-6.66.47-6.66l1.08.08-.58,8.25ZM34.59,109.21c-10.03-10.03-15.56-23.36-15.56-37.52v-.09c0-29.23,23.81-53.03,53.11-53.06h0c29.26.03,53.08,23.85,53.11,53.11-.01,14.2-5.56,27.55-15.62,37.59-10.04,10.02-23.35,15.53-37.48,15.51-14.17.02-27.51-5.5-37.55-15.54ZM75.92,139.36l-3.3.17-.41-8.25,3.34-.17h0c2.15-.11,3.55,1.46,3.67,3.84.09,1.85-.59,4.28-3.3,4.41ZM89.15,137.31l-1.08.27-1.74-7.04-2.71.67-.24-.96,6.5-1.61.24.96-2.71.67,1.74,7.04ZM94.02,135.97l-3.22-7.59,5.53-2.35h0l.39.91-4.5,1.91.99,2.33,4.15-1.76.39.91-4.15,1.76,1.08,2.54,4.58-1.94.39.91-5.6,2.37ZM105.1,131.17c-1.65.88-3.84.67-5.33-2.12-1.19-2.23-.74-4.46,1.37-5.59.7-.37,1.36-.52,1.96-.49h0c.99.04,1.8.56,2.29,1.27l-.95.51c-.95-1.13-2.14-.79-2.84-.42-1.31.7-1.86,2.24-.84,4.15.91,1.71,2.22,2.7,4.02,1.74.64-.34,1.58-1.23,1.01-3.1l.95-.51c1.06,2.96-1.1,4.27-1.65,4.56ZM114.51,124.48l-2.31-3.08-3.45,2.58,2.31,3.08-.89.67-4.95-6.6.89-.67,2.05,2.73,3.45-2.59-2.05-2.73.89-.67h0s4.95,6.6,4.95,6.6l-.89.67ZM121.3,118.09l-7.71-1.75h-.01s4.73,4.75,4.73,4.75l-.77.77-5.86-5.86.94-.94,7.66,1.8.02-.02-4.73-4.73.77-.77h0s0,0,0,0h0s5.86,5.86,5.86,5.86l-.89.89ZM126.39,112.23c-1.85,2.46-4.46,1.68-5.89.61-1.43-1.07-2.91-3.36-1.06-5.82.92-1.23,2.04-1.65,3.1-1.63h0c1.06.02,2.07.49,2.79,1.02,1.43,1.07,2.91,3.36,1.06,5.82ZM129.93,106.73l-7.18-3.96.53-.97,6.32,3.49,2.01-3.64h0s.86.47.86.47l-2.54,4.61ZM134.99,96.84c-1.05,2.89-3.78,2.91-5.45,2.3-1.67-.61-3.76-2.36-2.71-5.25.78-2.17,2.52-2.72,4.04-2.61h0c.51.04.99.15,1.41.3,1.67.61,3.76,2.36,2.72,5.26ZM138.4,84.28l-1.1.04c.65.72.93,1.83.69,2.94-.3,1.38-.95,1.95-1.44,2.28-1.44.99-2.83.73-3.69.54-1.97-.42-3.93-2.09-3.37-4.73.32-1.51,1.54-3,3.4-2.85h0s-.23,1.06-.23,1.06c-1.48.05-2.03,1.17-2.22,2.06-.31,1.45.59,2.89,2.71,3.35,1.64.35,3.45.17,3.91-1.98.09-.41.18-1.07-.16-1.77-.41-.83-1.09-1.16-1.96-1.35l-.54,2.52-.94-.2.76-3.55,4.32.93-.15.71ZM135.91,78.09l-5.19,2.59.13-1.29,4.16-1.95-3.69-2.74.13-1.3h0s0,0,0,0h0s4.57,3.58,4.57,3.58l3.29.33-.11,1.1-3.29-.33Z"/>
  <path class="cls-1" d="M124.64,107.33c-.78-.58-1.61-.87-2.38-.83h0c-.77.04-1.49.4-2.02,1.12-1.08,1.43-.59,3.15.96,4.31,1.55,1.16,3.33,1.15,4.41-.29,1.07-1.43.59-3.15-.96-4.31Z"/>
</svg>