<?xml version="1.0" encoding="utf-8"?>
<!-- Generator: Adobe Illustrator 24.1.2, SVG Export Plug-In . SVG Version: 6.00 Build 0)  -->
<svg version="1.1" id="Layer_1" xmlns="http://www.w3.org/2000/svg" xmlns:xlink="http://www.w3.org/1999/xlink" x="0px" y="0px"
	 viewBox="0 0 682.7 682.7" style="enable-background:new 0 0 682.7 682.7;" xml:space="preserve">
<style type="text/css">
	.st0{fill:url(#JS_1_);}
</style>
<linearGradient id="JS_1_" gradientUnits="userSpaceOnUse" x1="126.0085" y1="341.35" x2="556.5914" y2="341.35">
	<stop  offset="0" style="stop-color:#24C6DC"/>
	<stop  offset="0.1557" style="stop-color:#26C1D9"/>
	<stop  offset="0.3438" style="stop-color:#2BB2D2"/>
	<stop  offset="0.5487" style="stop-color:#349AC5"/>
	<stop  offset="0.7655" style="stop-color:#4078B4"/>
	<stop  offset="0.9895" style="stop-color:#504C9E"/>
	<stop  offset="1" style="stop-color:#514A9D"/>
</linearGradient>
<path id="JS" class="st0" d="M126,460.1l38.3-53.5c7.4,4.8,17.5,7.8,29.7,7.8c38.6,0,59-29.7,63.8-63.2l22.3-139.6h63.2l-24.1,151.9
	c-11.1,72.1-62,111.8-134.8,111.8C162,475.4,141.9,469.8,126,460.1z M343.5,408.5l63.2-17.1c2.6,17.1,17.1,27.5,37.1,27.5
	c20.4,0,34.9-9.7,36.8-23.4c3.3-18.6-22.3-22.6-48.7-30c-33-9.7-75-28.2-66.5-80.2c6.7-44.2,51.3-78,108-78
	c47.9,0,77.6,25.2,83.1,65l-59.4,16.3c-3.3-16-13-26-32-26c-20.8,0-34.2,11.9-36,24.5c-3,17.5,20.1,23,44.9,30.5
	c32.8,9.2,79.9,24.1,71,78c-7.4,49-51.6,79.8-110.7,79.8C385.9,475.4,349.9,449.4,343.5,408.5z"/>
</svg>
